<svg width="44" height="44" viewBox="0 0 44 44" fill="none" xmlns="http://www.w3.org/2000/svg">
<circle cx="22" cy="22" r="21.25" stroke="#1AC9D0" stroke-width="1.5"/>
<circle cx="21.9998" cy="22.0001" r="19.3333" fill="#1AC9D0"/>
<path d="M25.1426 14.1431H18.8569C15.714 14.1431 14.1426 15.7145 14.1426 18.8574V29.0716C14.1426 29.5038 14.4961 29.8574 14.9283 29.8574H25.1426C28.2854 29.8574 29.8569 28.2859 29.8569 25.1431V18.8574C29.8569 15.7145 28.2854 14.1431 25.1426 14.1431Z" stroke="white" stroke-width="1.5" stroke-linecap="round" stroke-linejoin="round"/>
<path d="M22.715 18.7316L18.6372 22.8094C18.48 22.9666 18.3308 23.273 18.2993 23.493L18.0793 25.0487C18.0008 25.6144 18.3936 26.0073 18.9593 25.9287L20.515 25.7087C20.735 25.6773 21.0415 25.528 21.1986 25.3709L25.2765 21.293C25.9758 20.5937 26.3136 19.7766 25.2765 18.7394C24.2393 17.6944 23.4222 18.0244 22.715 18.7316Z" stroke="white" stroke-width="1.5" stroke-miterlimit="10" stroke-linecap="round" stroke-linejoin="round"/>
<path d="M22.1338 19.313C22.4795 20.5466 23.4459 21.5208 24.6874 21.8666" stroke="white" stroke-width="1.5" stroke-miterlimit="10" stroke-linecap="round" stroke-linejoin="round"/>
</svg>
