<svg width="56" height="56" viewBox="0 0 56 56" fill="none" xmlns="http://www.w3.org/2000/svg">
<circle cx="28" cy="28" r="27.25" stroke="#C492EE" stroke-width="1.5"/>
<circle cx="27.9996" cy="28.0001" r="24.6061" fill="#C492EE"/>
<path d="M24.3799 28.0001L26.7899 30.4201L31.6199 25.5801" stroke="white" stroke-width="1.5" stroke-linecap="round" stroke-linejoin="round"/>
<path d="M26.7499 18.4501C27.4399 17.8601 28.5699 17.8601 29.2699 18.4501L30.8499 19.8101C31.1499 20.0701 31.7099 20.2801 32.1099 20.2801H33.8099C34.8699 20.2801 35.7399 21.1501 35.7399 22.2101V23.9101C35.7399 24.3001 35.9499 24.8701 36.2099 25.1701L37.5699 26.7501C38.1599 27.4401 38.1599 28.5701 37.5699 29.2701L36.2099 30.8501C35.9499 31.1501 35.7399 31.7101 35.7399 32.1101V33.8101C35.7399 34.8701 34.8699 35.7401 33.8099 35.7401H32.1099C31.7199 35.7401 31.1499 35.9501 30.8499 36.2101L29.2699 37.5701C28.5799 38.1601 27.4499 38.1601 26.7499 37.5701L25.1699 36.2101C24.8699 35.9501 24.3099 35.7401 23.9099 35.7401H22.1799C21.1199 35.7401 20.2499 34.8701 20.2499 33.8101V32.1001C20.2499 31.7101 20.0399 31.1501 19.7899 30.8501L18.4399 29.2601C17.8599 28.5701 17.8599 27.4501 18.4399 26.7601L19.7899 25.1701C20.0399 24.8701 20.2499 24.3101 20.2499 23.9201V22.2001C20.2499 21.1401 21.1199 20.2701 22.1799 20.2701H23.9099C24.2999 20.2701 24.8699 20.0601 25.1699 19.8001L26.7499 18.4501Z" stroke="white" stroke-width="1.5" stroke-linecap="round" stroke-linejoin="round"/>
</svg>
