<svg width="157" height="39" viewBox="0 0 157 39" fill="none" xmlns="http://www.w3.org/2000/svg">
<path d="M32.2594 32.9748C29.991 32.9748 28.1498 32.2629 26.7357 30.839C25.3315 29.4053 24.6294 27.5003 24.6294 25.1239V24.682C24.6294 23.0912 24.9338 21.6723 25.5426 20.4251C26.1613 19.1682 27.0254 18.1911 28.1351 17.4939C29.2447 16.7967 30.482 16.4481 31.847 16.4481C34.0171 16.4481 35.6914 17.1404 36.8698 18.525C38.058 19.9096 38.6521 21.8686 38.6521 24.4022V25.8457H28.2382C28.3462 27.1615 28.7832 28.2024 29.5491 28.9684C30.3249 29.7343 31.297 30.1173 32.4656 30.1173C34.1055 30.1173 35.441 29.4544 36.4721 28.1288L38.4017 29.97C37.7634 30.9225 36.9091 31.6639 35.8387 32.1942C34.7782 32.7146 33.5851 32.9748 32.2594 32.9748ZM31.8322 19.3204C30.8502 19.3204 30.0548 19.6641 29.446 20.3515C28.847 21.0389 28.464 21.9963 28.2971 23.2238H35.117V22.9586C35.0384 21.7606 34.7193 20.8572 34.1595 20.2484C33.5998 19.6297 32.824 19.3204 31.8322 19.3204Z" fill="#1B2055"/>
<path d="M45.8084 21.9865L48.8427 16.7427H52.8197L47.9442 24.5936L52.9817 32.6803H49.0342L45.8526 27.2303L42.6857 32.6803H38.7086L43.7462 24.5936L38.8854 16.7427H42.833L45.8084 21.9865Z" fill="#1B2055"/>
<path d="M67.8564 24.8735C67.8564 27.3383 67.2967 29.3072 66.1772 30.7801C65.0578 32.2433 63.5553 32.9748 61.6699 32.9748C59.922 32.9748 58.5227 32.4004 57.472 31.2515V38.8078H53.8926V16.7427H57.1921L57.3394 18.363C58.3901 17.0864 59.8189 16.4481 61.6257 16.4481C63.5701 16.4481 65.0921 17.1748 66.192 18.6281C67.3016 20.0716 67.8564 22.0798 67.8564 24.6526V24.8735ZM64.2918 24.5642C64.2918 22.9734 63.9727 21.7115 63.3344 20.7786C62.7059 19.8458 61.8025 19.3793 60.6241 19.3793C59.161 19.3793 58.1102 19.9832 57.472 21.1911V28.2613C58.1201 29.4986 59.1806 30.1173 60.6536 30.1173C61.7927 30.1173 62.6814 29.6607 63.3197 28.7474C63.9678 27.8244 64.2918 26.4299 64.2918 24.5642Z" fill="#1B2055"/>
<path d="M73.3482 32.6803H69.7689V10.0554H73.3482V32.6803Z" fill="#1B2055"/>
<path d="M79.7091 32.6803H76.1298V16.7427H79.7091V32.6803ZM75.9089 12.6037C75.9089 12.0538 76.0807 11.5971 76.4244 11.2338C76.7779 10.8705 77.2787 10.6888 77.9268 10.6888C78.5749 10.6888 79.0757 10.8705 79.4293 11.2338C79.7828 11.5971 79.9595 12.0538 79.9595 12.6037C79.9595 13.1437 79.7828 13.5955 79.4293 13.9588C79.0757 14.3123 78.5749 14.4891 77.9268 14.4891C77.2787 14.4891 76.7779 14.3123 76.4244 13.9588C76.0807 13.5955 75.9089 13.1437 75.9089 12.6037Z" fill="#1B2055"/>
<path d="M88.8097 30.1173C89.7033 30.1173 90.4447 29.8571 91.0339 29.3366C91.6231 28.8162 91.9373 28.173 91.9766 27.407H95.3497C95.3104 28.3988 95.0011 29.3268 94.4218 30.1909C93.8424 31.0453 93.0568 31.7228 92.065 32.2236C91.0732 32.7244 90.0028 32.9748 88.8539 32.9748C86.6248 32.9748 84.8573 32.2531 83.5512 30.8096C82.2452 29.3661 81.5922 27.3727 81.5922 24.8293V24.4611C81.5922 22.0356 82.2403 20.0962 83.5365 18.6428C84.8327 17.1797 86.6003 16.4481 88.8392 16.4481C90.7344 16.4481 92.2761 17.0029 93.4643 18.1126C94.6623 19.2124 95.2908 20.6608 95.3497 22.4578H91.9766C91.9373 21.5446 91.6231 20.7934 91.0339 20.2042C90.4545 19.615 89.7132 19.3204 88.8097 19.3204C87.651 19.3204 86.7574 19.7427 86.1289 20.5872C85.5005 21.4218 85.1813 22.6935 85.1715 24.4022V24.9766C85.1715 26.7049 85.4808 27.9962 86.0995 28.8505C86.7279 29.695 87.6314 30.1173 88.8097 30.1173Z" fill="#1B2055"/>
<path d="M100.503 32.6803H96.9234V16.7427H100.503V32.6803ZM96.7025 12.6037C96.7025 12.0538 96.8743 11.5971 97.218 11.2338C97.5716 10.8705 98.0724 10.6888 98.7205 10.6888C99.3686 10.6888 99.8694 10.8705 100.223 11.2338C100.576 11.5971 100.753 12.0538 100.753 12.6037C100.753 13.1437 100.576 13.5955 100.223 13.9588C99.8694 14.3123 99.3686 14.4891 98.7205 14.4891C98.0724 14.4891 97.5716 14.3123 97.218 13.9588C96.8743 13.5955 96.7025 13.1437 96.7025 12.6037Z" fill="#1B2055"/>
<path d="M107.541 12.8688V16.7427H110.355V19.3941H107.541V28.2908C107.541 28.8996 107.659 29.3415 107.895 29.6165C108.14 29.8816 108.572 30.0142 109.191 30.0142C109.603 30.0142 110.021 29.9651 110.443 29.8669V32.6361C109.628 32.8619 108.842 32.9748 108.086 32.9748C105.337 32.9748 103.962 31.4577 103.962 28.4234V19.3941H101.34V16.7427H103.962V12.8688H107.541Z" fill="#1B2055"/>
<path d="M17.7502 0V31.1092V32.3661H24.7562V31.1092C20.9646 30.7787 20.2641 27.7573 20.2641 26.3957V2.10144H28.12C32.1422 2.10144 32.9382 5.8657 32.8335 7.85585H34.0904V0H17.7502Z" fill="#1A237E"/>
<path d="M16.3403 0V31.1092V32.3661H9.33437V31.1092C13.1259 30.7787 13.8265 27.7573 13.8265 26.3957V2.10144H5.97061C1.94842 2.10144 1.15236 5.8657 1.2571 7.85585H0.000167847V0H16.3403Z" fill="#42A5F5"/>
<rect x="118" y="14" width="39" height="20" rx="4" fill="#42A5F5"/>
<path d="M132.158 29L130.31 25.736H129.518V29H127.838V20.624H130.982C131.63 20.624 132.182 20.74 132.638 20.972C133.094 21.196 133.434 21.504 133.658 21.896C133.89 22.28 134.006 22.712 134.006 23.192C134.006 23.744 133.846 24.244 133.526 24.692C133.206 25.132 132.73 25.436 132.098 25.604L134.102 29H132.158ZM129.518 24.476H130.922C131.378 24.476 131.718 24.368 131.942 24.152C132.166 23.928 132.278 23.62 132.278 23.228C132.278 22.844 132.166 22.548 131.942 22.34C131.718 22.124 131.378 22.016 130.922 22.016H129.518V24.476ZM146.721 20.624L144.381 29H142.401L140.829 23.036L139.185 29L137.217 29.012L134.961 20.624H136.761L138.237 27.128L139.941 20.624H141.813L143.421 27.092L144.909 20.624H146.721Z" fill="white"/>
</svg>
