<svg width="171" height="41" viewBox="0 0 171 41" fill="none" xmlns="http://www.w3.org/2000/svg">
<g id="Group 26">
<g id="logo">
<g id="Group 18">
<g id="explicit">
<path d="M33.5046 34.2475C31.1487 34.2475 29.2364 33.5081 27.7677 32.0292C26.3093 30.5402 25.5801 28.5616 25.5801 26.0935V25.6345C25.5801 23.9823 25.8962 22.5086 26.5286 21.2133C27.1711 19.9079 28.0686 18.8931 29.2211 18.169C30.3735 17.4449 31.6586 17.0828 33.0762 17.0828C35.3302 17.0828 37.0691 17.8018 38.2929 19.2399C39.527 20.6779 40.144 22.7126 40.144 25.3439V26.8431H29.3282C29.4403 28.2098 29.8942 29.2908 30.6897 30.0863C31.4954 30.8818 32.5051 31.2796 33.7188 31.2796C35.422 31.2796 36.809 30.5912 37.8799 29.2143L39.884 31.1266C39.221 32.1159 38.3337 32.8859 37.2221 33.4367C36.1206 33.9772 34.8814 34.2475 33.5046 34.2475ZM33.0609 20.066C32.0411 20.066 31.2149 20.4229 30.5826 21.1369C29.9605 21.8508 29.5627 22.8452 29.3893 24.12H36.4725V23.8446C36.3909 22.6004 36.0594 21.6621 35.4781 21.0298C34.8967 20.3872 34.091 20.066 33.0609 20.066Z" fill="#1B2055"/>
<path d="M47.5766 22.835L50.728 17.3888H54.8585L49.7948 25.5428L55.0268 33.9415H50.9269L47.6225 28.2811L44.3333 33.9415H40.2028L45.4348 25.5428L40.3864 17.3888H44.4863L47.5766 22.835Z" fill="#1B2055"/>
<path d="M70.4756 25.8334C70.4756 28.3933 69.8943 30.4382 68.7316 31.968C67.569 33.4877 66.0085 34.2475 64.0504 34.2475C62.235 34.2475 60.7816 33.6508 59.6903 32.4576V40.3056H55.9729V17.3888H59.3997L59.5527 19.0716C60.6439 17.7457 62.1279 17.0828 64.0045 17.0828C66.0238 17.0828 67.6047 17.8375 68.7469 19.347C69.8994 20.8462 70.4756 22.9318 70.4756 25.6039V25.8334ZM66.7734 25.5122C66.7734 23.8599 66.442 22.5494 65.7791 21.5805C65.1263 20.6116 64.188 20.1272 62.9642 20.1272C61.4445 20.1272 60.3533 20.7544 59.6903 22.0089V29.352C60.3635 30.6371 61.4649 31.2796 62.9948 31.2796C64.1778 31.2796 65.1008 30.8054 65.7638 29.8569C66.4369 28.8982 66.7734 27.4499 66.7734 25.5122Z" fill="#1B2055"/>
<path d="M76.1794 33.9415H72.462V10.4434H76.1794V33.9415Z" fill="#1B2055"/>
<path d="M82.7859 33.9415H79.0684V17.3888H82.7859V33.9415ZM78.8389 13.09C78.8389 12.5188 79.0174 12.0446 79.3743 11.6672C79.7415 11.2899 80.2616 11.1012 80.9348 11.1012C81.6079 11.1012 82.128 11.2899 82.4952 11.6672C82.8623 12.0446 83.0459 12.5188 83.0459 13.09C83.0459 13.6509 82.8623 14.12 82.4952 14.4974C82.128 14.8646 81.6079 15.0481 80.9348 15.0481C80.2616 15.0481 79.7415 14.8646 79.3743 14.4974C79.0174 14.12 78.8389 13.6509 78.8389 13.09Z" fill="#1B2055"/>
<path d="M92.2377 31.2796C93.1658 31.2796 93.9358 31.0093 94.5478 30.4688C95.1597 29.9283 95.4861 29.2602 95.5269 28.4647H99.0302C98.9894 29.4948 98.6681 30.4586 98.0664 31.3561C97.4646 32.2434 96.6487 32.9471 95.6187 33.4673C94.5886 33.9874 93.4769 34.2475 92.2836 34.2475C89.9685 34.2475 88.1327 33.4979 86.7763 31.9986C85.4198 30.4994 84.7416 28.429 84.7416 25.7875V25.4051C84.7416 22.886 85.4147 20.8717 86.761 19.3623C88.1072 17.8426 89.943 17.0828 92.2683 17.0828C94.2367 17.0828 95.8379 17.659 97.072 18.8115C98.3163 19.9538 98.969 21.4581 99.0302 23.3245H95.5269C95.4861 22.376 95.1597 21.5958 94.5478 20.9839C93.946 20.3719 93.176 20.066 92.2377 20.066C91.0343 20.066 90.1062 20.5045 89.4535 21.3816C88.8007 22.2485 88.4693 23.5693 88.4591 25.3439V25.9405C88.4591 27.7355 88.7803 29.0767 89.4229 29.964C90.0756 30.8411 91.0139 31.2796 92.2377 31.2796Z" fill="#1B2055"/>
<path d="M104.382 33.9415H100.665V17.3888H104.382V33.9415ZM100.435 13.09C100.435 12.5188 100.614 12.0446 100.971 11.6672C101.338 11.2899 101.858 11.1012 102.531 11.1012C103.204 11.1012 103.724 11.2899 104.091 11.6672C104.459 12.0446 104.642 12.5188 104.642 13.09C104.642 13.6509 104.459 14.12 104.091 14.4974C103.724 14.8646 103.204 15.0481 102.531 15.0481C101.858 15.0481 101.338 14.8646 100.971 14.4974C100.614 14.12 100.435 13.6509 100.435 13.09Z" fill="#1B2055"/>
<path d="M111.692 13.3653V17.3888H114.614V20.1425H111.692V29.3826C111.692 30.0149 111.815 30.4739 112.059 30.7595C112.314 31.0348 112.763 31.1725 113.406 31.1725C113.834 31.1725 114.267 31.1215 114.706 31.0195V33.8956C113.86 34.1302 113.044 34.2475 112.258 34.2475C109.403 34.2475 107.975 32.6717 107.975 29.5203V20.1425H105.252V17.3888H107.975V13.3653H111.692Z" fill="#1B2055"/>
</g>
<g id="Group 19">
<path id="Vector 6" d="M18.4353 0V32.31V33.6154H25.7117V32.31C21.7738 31.9667 21.0462 28.8288 21.0462 27.4145V2.18255H29.2053C33.3827 2.18255 34.2095 6.09211 34.1007 8.15908H35.4062V0H18.4353Z" fill="#1A237E"/>
<path id="Vector 7" d="M16.9709 0V32.31V33.6154H9.69456V32.31C13.6325 31.9667 14.36 28.8288 14.36 27.4145V2.18255H6.20096C2.02351 2.18255 1.19672 6.09211 1.30551 8.15908H5.91278e-05V0H16.9709Z" fill="#42A5F5"/>
</g>
</g>
</g>
<g id="Group 22">
<path id="Union" fill-rule="evenodd" clip-rule="evenodd" d="M122.632 18.1994C122.632 16.8663 123.713 15.7856 125.046 15.7856L125.064 15.7857H132.991C134.869 15.7857 138.422 16.9926 138.322 21.9207L138.322 21.9424C138.324 22.3619 138.343 25.9604 134.724 27.4302L137.1 30.0097C138.003 30.9902 137.941 32.5172 136.96 33.4204C135.98 34.3237 134.453 34.2611 133.55 33.2806L128.879 28.21C127.975 27.2296 128.038 25.7026 129.018 24.7993C129.64 24.2266 130.481 24.0422 131.244 24.2339H131.684C132.455 24.2003 133.917 23.55 133.595 21.2167C133.595 20.8144 133.192 19.5069 131.684 19.5069H127.862H127.46V31.4751C127.46 32.8082 126.379 33.8888 125.046 33.8888C123.713 33.8888 122.632 32.8082 122.632 31.4751V18.1994Z" fill="#1D40F8"/>
<g id="Group 20">
<rect id="Rectangle 5" width="6.13072" height="19.9536" rx="3.06536" transform="matrix(0.868749 -0.495252 0.498918 0.866649 138.771 17.6575)" fill="#1D40F8"/>
<rect id="Rectangle 6" width="6.13072" height="19.9536" rx="3.06536" transform="matrix(0.868749 -0.495252 0.498918 0.866649 148.815 17.615)" fill="#1D40F8"/>
<rect id="Rectangle 7" opacity="0.3" width="6.13103" height="19.9526" rx="3.06551" transform="matrix(0.874568 0.484903 -0.488541 0.872541 165.638 14.5789)" fill="#1D40F8"/>
<ellipse id="Ellipse 1" cx="166.82" cy="18.9276" rx="3.03998" ry="3.2142" fill="#1D40F8"/>
</g>
</g>
</g>
</svg>
