<svg width="176" height="39" viewBox="0 0 176 39" fill="none" xmlns="http://www.w3.org/2000/svg">
<path d="M32.2594 32.9748C29.991 32.9748 28.1498 32.2629 26.7357 30.839C25.3315 29.4053 24.6294 27.5002 24.6294 25.1239V24.682C24.6294 23.0912 24.9338 21.6722 25.5426 20.4251C26.1613 19.1681 27.0254 18.1911 28.1351 17.4939C29.2447 16.7967 30.482 16.4481 31.847 16.4481C34.0171 16.4481 35.6914 17.1403 36.8698 18.5249C38.058 19.9095 38.6521 21.8686 38.6521 24.4021V25.8456H28.2382C28.3462 27.1615 28.7832 28.2024 29.5491 28.9683C30.3249 29.7343 31.297 30.1172 32.4656 30.1172C34.1055 30.1172 35.441 29.4544 36.4721 28.1287L38.4017 29.9699C37.7634 30.9224 36.9091 31.6638 35.8387 32.1941C34.7782 32.7146 33.5851 32.9748 32.2594 32.9748ZM31.8322 19.3203C30.8502 19.3203 30.0548 19.664 29.446 20.3514C28.847 21.0388 28.464 21.9962 28.2971 23.2237H35.117V22.9586C35.0384 21.7606 34.7193 20.8571 34.1595 20.2483C33.5998 19.6297 32.824 19.3203 31.8322 19.3203Z" fill="#1B2055"/>
<path d="M45.8084 21.9864L48.8427 16.7426H52.8197L47.9442 24.5936L52.9817 32.6802H49.0342L45.8526 27.2302L42.6857 32.6802H38.7086L43.7462 24.5936L38.8854 16.7426H42.833L45.8084 21.9864Z" fill="#1B2055"/>
<path d="M67.8564 24.8734C67.8564 27.3382 67.2967 29.3071 66.1772 30.7801C65.0578 32.2432 63.5553 32.9748 61.6699 32.9748C59.922 32.9748 58.5227 32.4003 57.472 31.2514V38.8078H53.8926V16.7426H57.1921L57.3394 18.3629C58.3901 17.0863 59.8189 16.4481 61.6257 16.4481C63.5701 16.4481 65.0921 17.1747 66.192 18.6281C67.3016 20.0716 67.8564 22.0797 67.8564 24.6525V24.8734ZM64.2918 24.5641C64.2918 22.9733 63.9727 21.7115 63.3344 20.7786C62.7059 19.8457 61.8025 19.3793 60.6241 19.3793C59.161 19.3793 58.1102 19.9832 57.472 21.191V28.2613C58.1201 29.4986 59.1806 30.1172 60.6536 30.1172C61.7927 30.1172 62.6814 29.6606 63.3197 28.7474C63.9678 27.8243 64.2918 26.4299 64.2918 24.5641Z" fill="#1B2055"/>
<path d="M73.3482 32.6802H69.7689V10.0554H73.3482V32.6802Z" fill="#1B2055"/>
<path d="M79.7091 32.6802H76.1298V16.7426H79.7091V32.6802ZM75.9089 12.6036C75.9089 12.0537 76.0807 11.5971 76.4244 11.2337C76.7779 10.8704 77.2787 10.6887 77.9268 10.6887C78.5749 10.6887 79.0757 10.8704 79.4293 11.2337C79.7828 11.5971 79.9595 12.0537 79.9595 12.6036C79.9595 13.1437 79.7828 13.5954 79.4293 13.9587C79.0757 14.3122 78.5749 14.489 77.9268 14.489C77.2787 14.489 76.7779 14.3122 76.4244 13.9587C76.0807 13.5954 75.9089 13.1437 75.9089 12.6036Z" fill="#1B2055"/>
<path d="M88.8097 30.1172C89.7033 30.1172 90.4447 29.857 91.0339 29.3365C91.6231 28.8161 91.9373 28.1729 91.9766 27.407H95.3497C95.3104 28.3988 95.0011 29.3267 94.4218 30.1909C93.8424 31.0452 93.0568 31.7228 92.065 32.2236C91.0732 32.7244 90.0028 32.9748 88.8539 32.9748C86.6248 32.9748 84.8573 32.253 83.5512 30.8095C82.2452 29.366 81.5922 27.3726 81.5922 24.8293V24.461C81.5922 22.0355 82.2403 20.0961 83.5365 18.6428C84.8327 17.1796 86.6003 16.4481 88.8392 16.4481C90.7344 16.4481 92.2761 17.0029 93.4643 18.1125C94.6623 19.2123 95.2908 20.6608 95.3497 22.4578H91.9766C91.9373 21.5445 91.6231 20.7933 91.0339 20.2041C90.4545 19.6149 89.7132 19.3203 88.8097 19.3203C87.651 19.3203 86.7574 19.7426 86.1289 20.5871C85.5005 21.4218 85.1813 22.6935 85.1715 24.4021V24.9766C85.1715 26.7048 85.4808 27.9961 86.0995 28.8505C86.7279 29.695 87.6314 30.1172 88.8097 30.1172Z" fill="#1B2055"/>
<path d="M100.503 32.6802H96.9234V16.7426H100.503V32.6802ZM96.7025 12.6036C96.7025 12.0537 96.8743 11.5971 97.218 11.2337C97.5716 10.8704 98.0724 10.6887 98.7205 10.6887C99.3686 10.6887 99.8694 10.8704 100.223 11.2337C100.576 11.5971 100.753 12.0537 100.753 12.6036C100.753 13.1437 100.576 13.5954 100.223 13.9587C99.8694 14.3122 99.3686 14.489 98.7205 14.489C98.0724 14.489 97.5716 14.3122 97.218 13.9587C96.8743 13.5954 96.7025 13.1437 96.7025 12.6036Z" fill="#1B2055"/>
<path d="M107.541 12.8687V16.7426H110.355V19.394H107.541V28.2907C107.541 28.8996 107.659 29.3415 107.895 29.6164C108.14 29.8815 108.572 30.0141 109.191 30.0141C109.603 30.0141 110.021 29.965 110.443 29.8668V32.636C109.628 32.8619 108.842 32.9748 108.086 32.9748C105.337 32.9748 103.962 31.4576 103.962 28.4233V19.394H101.34V16.7426H103.962V12.8687H107.541Z" fill="#1B2055"/>
<path d="M17.7502 0V31.1092V32.3661H24.7562V31.1092C20.9646 30.7787 20.2641 27.7573 20.2641 26.3957V2.10144H28.12C32.1422 2.10144 32.9382 5.8657 32.8335 7.85585H34.0904V0H17.7502Z" fill="#1A237E"/>
<path d="M16.3402 0V31.1092V32.3661H9.33425V31.1092C13.1258 30.7787 13.8263 27.7573 13.8263 26.3957V2.10144H5.97049C1.9483 2.10144 1.15224 5.8657 1.25698 7.85585H4.57764e-05V0H16.3402Z" fill="#42A5F5"/>
<rect x="118" y="14" width="58" height="20" rx="5" fill="#FFB534"/>
<path d="M129.443 29L127.595 25.736H126.803V29H125.123V20.624H128.267C128.915 20.624 129.467 20.74 129.923 20.972C130.379 21.196 130.719 21.504 130.943 21.896C131.175 22.28 131.291 22.712 131.291 23.192C131.291 23.744 131.131 24.244 130.811 24.692C130.491 25.132 130.015 25.436 129.383 25.604L131.387 29H129.443ZM126.803 24.476H128.207C128.663 24.476 129.003 24.368 129.227 24.152C129.451 23.928 129.563 23.62 129.563 23.228C129.563 22.844 129.451 22.548 129.227 22.34C129.003 22.124 128.663 22.016 128.207 22.016H126.803V24.476ZM134.49 21.98V24.08H137.31V25.412H134.49V27.632H137.67V29H132.81V20.612H137.67V21.98H134.49ZM145.305 23.216C145.305 23.664 145.197 24.084 144.981 24.476C144.773 24.868 144.441 25.184 143.985 25.424C143.537 25.664 142.969 25.784 142.281 25.784H140.877V29H139.197V20.624H142.281C142.929 20.624 143.481 20.736 143.937 20.96C144.393 21.184 144.733 21.492 144.957 21.884C145.189 22.276 145.305 22.72 145.305 23.216ZM142.209 24.428C142.673 24.428 143.017 24.324 143.241 24.116C143.465 23.9 143.577 23.6 143.577 23.216C143.577 22.4 143.121 21.992 142.209 21.992H140.877V24.428H142.209ZM150.386 29.084C149.602 29.084 148.882 28.9 148.226 28.532C147.57 28.164 147.05 27.656 146.666 27.008C146.282 26.352 146.09 25.612 146.09 24.788C146.09 23.972 146.282 23.24 146.666 22.592C147.05 21.936 147.57 21.424 148.226 21.056C148.882 20.688 149.602 20.504 150.386 20.504C151.178 20.504 151.898 20.688 152.546 21.056C153.202 21.424 153.718 21.936 154.094 22.592C154.478 23.24 154.67 23.972 154.67 24.788C154.67 25.612 154.478 26.352 154.094 27.008C153.718 27.656 153.202 28.164 152.546 28.532C151.89 28.9 151.17 29.084 150.386 29.084ZM150.386 27.584C150.89 27.584 151.334 27.472 151.718 27.248C152.102 27.016 152.402 26.688 152.618 26.264C152.834 25.84 152.942 25.348 152.942 24.788C152.942 24.228 152.834 23.74 152.618 23.324C152.402 22.9 152.102 22.576 151.718 22.352C151.334 22.128 150.89 22.016 150.386 22.016C149.882 22.016 149.434 22.128 149.042 22.352C148.658 22.576 148.358 22.9 148.142 23.324C147.926 23.74 147.818 24.228 147.818 24.788C147.818 25.348 147.926 25.84 148.142 26.264C148.358 26.688 148.658 27.016 149.042 27.248C149.434 27.472 149.882 27.584 150.386 27.584ZM160.24 29L158.392 25.736H157.6V29H155.92V20.624H159.064C159.712 20.624 160.264 20.74 160.72 20.972C161.176 21.196 161.516 21.504 161.74 21.896C161.972 22.28 162.088 22.712 162.088 23.192C162.088 23.744 161.928 24.244 161.608 24.692C161.288 25.132 160.812 25.436 160.18 25.604L162.184 29H160.24ZM157.6 24.476H159.004C159.46 24.476 159.8 24.368 160.024 24.152C160.248 23.928 160.36 23.62 160.36 23.228C160.36 22.844 160.248 22.548 160.024 22.34C159.8 22.124 159.46 22.016 159.004 22.016H157.6V24.476ZM169.307 20.624V21.98H167.075V29H165.395V21.98H163.163V20.624H169.307Z" fill="#0F1344"/>
</svg>
