<?xml version="1.0" encoding="utf-8"?>
<svg width="94" height="27" viewBox="0 0 94 27" fill="none" xmlns="http://www.w3.org/2000/svg">
<path d="M79.7073 20.4669C80.2632 20.0112 80.5166 19.8002 80.4675 19.8339C82.0698 18.4668 83.3288 17.3445 84.2444 16.4668C85.1764 15.5892 85.9612 14.6693 86.5988 13.7073C87.2365 12.7452 87.5553 11.8085 87.5553 10.8971C87.5553 10.2051 87.4 9.66502 87.0893 9.27683C86.7787 8.88864 86.3127 8.69455 85.6914 8.69455C85.0701 8.69455 84.5796 8.93928 84.2199 9.42873C83.8765 9.90132 83.7048 10.5764 83.7048 11.4541H79.6582C79.6909 10.0195 79.9852 8.82113 80.5411 7.85909C81.1134 6.89705 81.8573 6.18818 82.7729 5.73248C83.7048 5.27678 84.7349 5.04893 85.8631 5.04893C87.8087 5.04893 89.272 5.5637 90.253 6.59325C91.2504 7.6228 91.7491 8.96459 91.7491 10.6186C91.7491 12.4246 91.1523 14.1039 89.9587 15.6567C88.7652 17.1926 87.2446 18.6947 85.3971 20.1631H92.0189V23.6821H79.7073V20.4669Z" fill="url(#paint0_linear_1677_18485)"/>
<path d="M22.1536 22.9745C20.5959 22.9745 19.3315 22.4832 18.3605 21.5006C17.3962 20.5112 16.9141 19.1965 16.9141 17.5565V17.2515C16.9141 16.1537 17.1231 15.1744 17.5412 14.3138C17.966 13.4463 18.5594 12.772 19.3214 12.2909C20.0834 11.8097 20.9331 11.5692 21.8704 11.5692C23.3607 11.5692 24.5104 12.0469 25.3196 13.0025C26.1355 13.958 26.5435 15.31 26.5435 17.0584V18.0546H19.3922C19.4664 18.9627 19.7665 19.681 20.2925 20.2096C20.8252 20.7382 21.4928 21.0025 22.2952 21.0025C23.4213 21.0025 24.3384 20.5451 25.0465 19.6302L26.3715 20.9008C25.9332 21.5582 25.3465 22.0698 24.6115 22.4358C23.8833 22.795 23.0639 22.9745 22.1536 22.9745ZM21.8603 13.5514C21.1859 13.5514 20.6397 13.7886 20.2216 14.2629C19.8103 14.7373 19.5473 15.3981 19.4327 16.2452H24.1159V16.0622C24.062 15.2354 23.8428 14.6119 23.4584 14.1918C23.0741 13.7648 22.5413 13.5514 21.8603 13.5514Z" fill="white"/>
<path d="M31.4577 15.3913L33.5414 11.7725H36.2724L32.9244 17.1905L36.3837 22.7712H33.6729L31.4881 19.0101L29.3134 22.7712H26.5823L30.0416 17.1905L26.7037 11.7725H29.4145L31.4577 15.3913Z" fill="white"/>
<path d="M46.5982 17.3837C46.5982 19.0846 46.2138 20.4434 45.4451 21.4599C44.6763 22.4697 43.6446 22.9745 42.3499 22.9745C41.1496 22.9745 40.1887 22.5781 39.4671 21.7852V27H37.0092V11.7725H39.275L39.3761 12.8906C40.0976 12.0096 41.0788 11.5692 42.3196 11.5692C43.6547 11.5692 44.6999 12.0706 45.4552 13.0736C46.2172 14.0698 46.5982 15.4557 46.5982 17.2312V17.3837ZM44.1504 17.1702C44.1504 16.0724 43.9312 15.2015 43.4929 14.5577C43.0613 13.9139 42.4409 13.592 41.6317 13.592C40.627 13.592 39.9055 14.0088 39.4671 14.8424V19.7217C39.9122 20.5755 40.6405 21.0025 41.652 21.0025C42.4342 21.0025 43.0445 20.6874 43.4828 20.0571C43.9278 19.4201 44.1504 18.4578 44.1504 17.1702Z" fill="white"/>
<path d="M50.3694 22.7712H47.9115V7.15745H50.3694V22.7712Z" fill="white"/>
<path d="M54.7375 22.7712H52.2795V11.7725H54.7375V22.7712ZM52.1278 8.91603C52.1278 8.53653 52.2458 8.22141 52.4818 7.97067C52.7246 7.71992 53.0685 7.59455 53.5136 7.59455C53.9586 7.59455 54.3025 7.71992 54.5453 7.97067C54.788 8.22141 54.9094 8.53653 54.9094 8.91603C54.9094 9.28876 54.788 9.60049 54.5453 9.85123C54.3025 10.0952 53.9586 10.2172 53.5136 10.2172C53.0685 10.2172 52.7246 10.0952 52.4818 9.85123C52.2458 9.60049 52.1278 9.28876 52.1278 8.91603Z" fill="white"/>
<path d="M60.9869 21.0025C61.6005 21.0025 62.1096 20.8229 62.5142 20.4637C62.9188 20.1046 63.1346 19.6607 63.1616 19.1321H65.4779C65.4509 19.8165 65.2385 20.457 64.8407 21.0533C64.4428 21.6429 63.9034 22.1105 63.2223 22.4561C62.5412 22.8017 61.8062 22.9745 61.0172 22.9745C59.4865 22.9745 58.2727 22.4764 57.3758 21.4803C56.479 20.4841 56.0306 19.1084 56.0306 17.3532V17.099C56.0306 15.4252 56.4756 14.0867 57.3657 13.0838C58.2558 12.074 59.4696 11.5692 61.0071 11.5692C62.3086 11.5692 63.3673 11.952 64.1832 12.7178C65.0059 13.4768 65.4375 14.4764 65.4779 15.7166H63.1616C63.1346 15.0863 62.9188 14.5679 62.5142 14.1613C62.1164 13.7547 61.6073 13.5514 60.9869 13.5514C60.1912 13.5514 59.5775 13.8428 59.146 14.4256C58.7144 15.0016 58.4952 15.8792 58.4885 17.0584V17.4548C58.4885 18.6475 58.7009 19.5387 59.1257 20.1283C59.5573 20.7111 60.1777 21.0025 60.9869 21.0025Z" fill="white"/>
<path d="M69.0165 22.7712H66.5586V11.7725H69.0165V22.7712ZM66.4069 8.91603C66.4069 8.53653 66.5249 8.22141 66.7609 7.97067C67.0036 7.71992 67.3476 7.59455 67.7926 7.59455C68.2377 7.59455 68.5816 7.71992 68.8243 7.97067C69.0671 8.22141 69.1885 8.53653 69.1885 8.91603C69.1885 9.28876 69.0671 9.60049 68.8243 9.85123C68.5816 10.0952 68.2377 10.2172 67.7926 10.2172C67.3476 10.2172 67.0036 10.0952 66.7609 9.85123C66.5249 9.60049 66.4069 9.28876 66.4069 8.91603Z" fill="white"/>
<path d="M73.8498 9.09901V11.7725H75.7818V13.6022H73.8498V19.742C73.8498 20.1622 73.9308 20.4671 74.0926 20.6569C74.2612 20.8398 74.5579 20.9313 74.9827 20.9313C75.2659 20.9313 75.5525 20.8974 75.8425 20.8297V22.7407C75.2828 22.8966 74.7433 22.9745 74.2241 22.9745C72.336 22.9745 71.3919 21.9275 71.3919 19.8335V13.6022H69.5915V11.7725H71.3919V9.09901H73.8498Z" fill="white"/>
<path d="M12.1895 0.218079V21.687V22.5545H17.0005V21.687C14.3968 21.459 13.9157 19.3739 13.9157 18.4342V1.66832H19.3104C22.0724 1.66832 22.6191 4.2661 22.5471 5.63954H23.4103V0.218079H12.1895Z" fill="white"/>
<path d="M11.2207 0.218079V21.687V22.5545H6.40969V21.687C9.01337 21.459 9.49442 19.3739 9.49442 18.4342V1.66832H4.09979C1.33774 1.66832 0.79108 4.2661 0.863008 5.63954H-0.000133514V0.218079H11.2207Z" fill="white"/>
<defs>
<linearGradient id="paint0_linear_1677_18485" x1="78.7508" y1="15.1294" x2="97.9443" y2="15.1294" gradientUnits="userSpaceOnUse">
<stop stop-color="#397AF9"/>
<stop offset="1" stop-color="#2A99F3" stop-opacity="0"/>
</linearGradient>
</defs>
</svg>
