<svg width="107" height="30" viewBox="0 0 107 30" fill="none" xmlns="http://www.w3.org/2000/svg">
<path d="M90.7298 22.741C91.3626 22.2346 91.6511 22.0002 91.5953 22.0377C93.4192 20.5187 94.8522 19.2716 95.8945 18.2965C96.9553 17.3213 97.8486 16.2992 98.5745 15.2303C99.3003 14.1614 99.6632 13.1206 99.6632 12.1079C99.6632 11.339 99.4864 10.7389 99.1328 10.3076C98.7792 9.87627 98.2488 9.66061 97.5416 9.66061C96.8343 9.66061 96.276 9.93253 95.8665 10.4764C95.4757 11.0015 95.2803 11.7516 95.2803 12.7268H90.674C90.7112 11.1327 91.0462 9.80126 91.679 8.73233C92.3304 7.6634 93.1772 6.87576 94.2195 6.36943C95.2803 5.86309 96.4528 5.60992 97.737 5.60992C99.9517 5.60992 101.617 6.1819 102.734 7.32584C103.869 8.46979 104.437 9.96066 104.437 11.7985C104.437 13.8051 103.758 15.671 102.399 17.3963C101.04 19.1028 99.3096 20.7719 97.2066 22.4034H104.744V26.3134H90.7298V22.741Z" fill="url(#paint0_linear_1861_12378)"/>
<path d="M25.2163 25.5273C23.4432 25.5273 22.0039 24.9813 20.8986 23.8895C19.801 22.7902 19.2521 21.3294 19.2521 19.5072V19.1683C19.2521 17.9485 19.4901 16.8605 19.966 15.9042C20.4496 14.9404 21.125 14.1911 21.9924 13.6565C22.8598 13.1219 23.827 12.8546 24.8939 12.8546C26.5903 12.8546 27.899 13.3854 28.8201 14.4471C29.7489 15.5089 30.2133 17.011 30.2133 18.9537V20.0606H22.073C22.1575 21.0696 22.499 21.8678 23.0978 22.4551C23.7041 23.0424 24.4641 23.3361 25.3775 23.3361C26.6594 23.3361 27.7033 22.8278 28.5092 21.8113L30.0176 23.2231C29.5186 23.9535 28.8508 24.522 28.0141 24.9286C27.1852 25.3277 26.2525 25.5273 25.2163 25.5273ZM24.8824 15.0571C24.1148 15.0571 23.4931 15.3206 23.0172 15.8477C22.5489 16.3748 22.2496 17.1089 22.1191 18.0502H27.45V17.8469C27.3886 16.9282 27.1391 16.2355 26.7016 15.7686C26.264 15.2943 25.6577 15.0571 24.8824 15.0571Z" fill="#1B2055"/>
<path d="M35.8072 17.1014L38.179 13.0805H41.2877L37.4767 19.1006L41.4144 25.3014H38.3287L35.8417 21.1223L33.3662 25.3014H30.2575L34.1952 19.1006L30.3957 13.0805H33.4814L35.8072 17.1014Z" fill="#1B2055"/>
<path d="M53.0415 19.3152C53.0415 21.2051 52.604 22.7149 51.7289 23.8443C50.8539 24.9663 49.6795 25.5273 48.2057 25.5273C46.8394 25.5273 45.7456 25.0868 44.9243 24.2058V30H42.1264V13.0805H44.7055L44.8206 14.3229C45.642 13.344 46.7588 12.8546 48.1712 12.8546C49.691 12.8546 50.8807 13.4118 51.7404 14.5262C52.6078 15.6331 53.0415 17.1729 53.0415 19.1457V19.3152ZM50.2552 19.078C50.2552 17.8581 50.0057 16.8906 49.5068 16.1752C49.0155 15.4599 48.3093 15.1022 47.3882 15.1022C46.2445 15.1022 45.4232 15.5653 44.9243 16.4915V21.9129C45.4309 22.8617 46.2599 23.3361 47.4112 23.3361C48.3016 23.3361 48.9963 22.9859 49.4952 22.2857C50.0018 21.5779 50.2552 20.5086 50.2552 19.078Z" fill="#1B2055"/>
<path d="M57.3343 25.3014H54.5364V7.9527H57.3343V25.3014Z" fill="#1B2055"/>
<path d="M62.3064 25.3014H59.5086V13.0805H62.3064V25.3014ZM59.3359 9.90668C59.3359 9.48501 59.4702 9.13488 59.7388 8.85627C60.0152 8.57767 60.4067 8.43837 60.9133 8.43837C61.4199 8.43837 61.8113 8.57767 62.0877 8.85627C62.364 9.13488 62.5022 9.48501 62.5022 9.90668C62.5022 10.3208 62.364 10.6672 62.0877 10.9458C61.8113 11.2169 61.4199 11.3524 60.9133 11.3524C60.4067 11.3524 60.0152 11.2169 59.7388 10.9458C59.4702 10.6672 59.3359 10.3208 59.3359 9.90668Z" fill="#1B2055"/>
<path d="M69.4201 23.3361C70.1186 23.3361 70.6982 23.1365 71.1587 22.7375C71.6193 22.3384 71.8649 21.8452 71.8956 21.2579H74.5323C74.5016 22.0184 74.2598 22.7299 73.8069 23.3926C73.354 24.0476 72.7399 24.5672 71.9647 24.9512C71.1894 25.3352 70.3527 25.5273 69.4547 25.5273C67.7122 25.5273 66.3306 24.9738 65.3097 23.8669C64.2888 22.76 63.7784 21.2315 63.7784 19.2813V18.9989C63.7784 17.1391 64.285 15.6519 65.2982 14.5375C66.3114 13.4156 67.6931 12.8546 69.4432 12.8546C70.9246 12.8546 72.1297 13.28 73.0585 14.1309C73.9949 14.9742 74.4862 16.0849 74.5323 17.4628H71.8956C71.8649 16.7626 71.6193 16.1865 71.1587 15.7347C70.7058 15.283 70.1263 15.0571 69.4201 15.0571C68.5144 15.0571 67.8159 15.3808 67.3246 16.0284C66.8334 16.6684 66.5839 17.6435 66.5762 18.9537V19.3942C66.5762 20.7195 66.818 21.7096 67.3016 22.3647C67.7928 23.0123 68.499 23.3361 69.4201 23.3361Z" fill="#1B2055"/>
<path d="M78.5603 25.3014H75.7624V13.0805H78.5603V25.3014ZM75.5897 9.90668C75.5897 9.48501 75.724 9.13488 75.9927 8.85627C76.269 8.57767 76.6605 8.43837 77.1671 8.43837C77.6737 8.43837 78.0652 8.57767 78.3415 8.85627C78.6178 9.13488 78.756 9.48501 78.756 9.90668C78.756 10.3208 78.6178 10.6672 78.3415 10.9458C78.0652 11.2169 77.6737 11.3524 77.1671 11.3524C76.6605 11.3524 76.269 11.2169 75.9927 10.9458C75.724 10.6672 75.5897 10.3208 75.5897 9.90668Z" fill="#1B2055"/>
<path d="M84.062 10.11V13.0805H86.2612V15.1135H84.062V21.9355C84.062 22.4024 84.1541 22.7412 84.3383 22.9521C84.5302 23.1554 84.868 23.257 85.3516 23.257C85.674 23.257 86.0002 23.2194 86.3302 23.1441V25.2675C85.6931 25.4407 85.0791 25.5273 84.488 25.5273C82.3388 25.5273 81.2642 24.3639 81.2642 22.0372V15.1135H79.2147V13.0805H81.2642V10.11H84.062Z" fill="#1B2055"/>
<path d="M13.8748 0.24231V24.0967V25.0605H19.3512V24.0967C16.3874 23.8433 15.8398 21.5266 15.8398 20.4824V1.85369H21.9805C25.1246 1.85369 25.7468 4.74011 25.665 6.26615H26.6475V0.24231H13.8748Z" fill="#1A237E"/>
<path d="M12.7727 0.24231V24.0967V25.0605H7.29634V24.0967C10.2601 23.8433 10.8077 21.5266 10.8077 20.4824V1.85369H4.66698C1.52295 1.85369 0.900687 4.74011 0.982564 6.26615H5.14984e-05V0.24231H12.7727Z" fill="#42A5F5"/>
<defs>
<linearGradient id="paint0_linear_1861_12378" x1="89.6411" y1="16.8105" x2="111.489" y2="16.8105" gradientUnits="userSpaceOnUse">
<stop stop-color="#397AF9"/>
<stop offset="1" stop-color="#2A99F3" stop-opacity="0"/>
</linearGradient>
</defs>
</svg>
