<?xml version="1.0" ?><!DOCTYPE svg  PUBLIC '-//W3C//DTD SVG 1.1//EN'  'http://www.w3.org/Graphics/SVG/1.1/DTD/svg11.dtd'><svg enable-background="new 0 0 100 100" height="100px" id="Layer_1" version="1.1" viewBox="0 0 100 100" width="100px" xml:space="preserve" xmlns="http://www.w3.org/2000/svg" xmlns:xlink="http://www.w3.org/1999/xlink"><g><circle cx="50" cy="50.001" fill="#E92818" r="45"/><g><path clip-rule="evenodd" d="M57.589,58.862c0-5.875,0-11.697,0.002-17.518    c0-0.062,0.015-0.125,0.021-0.18c0.144-0.084,0.288-0.053,0.424-0.053c1.485-0.002,2.969-0.002,4.454-0.002    c1.331,0,2.662-0.004,3.992,0.002c0.691,0.004,1.381,0.051,2.061,0.188c2.391,0.482,4.101,1.822,5.12,4.039    c0.457,0.998,0.703,2.051,0.829,3.139c0.082,0.701,0.092,1.404,0.066,2.107c-0.036,1.041-0.194,2.062-0.526,3.053    c-0.768,2.287-2.295,3.83-4.567,4.631c-0.91,0.322-1.852,0.502-2.812,0.555c-0.588,0.031-1.176,0.049-1.766,0.049    c-2.265,0.006-4.53,0.004-6.795,0.002C57.939,58.874,57.789,58.868,57.589,58.862z M63.095,54.296    c0.086,0.008,0.147,0.021,0.212,0.021c0.666,0.002,1.329,0.012,1.995-0.004c0.332-0.01,0.666-0.041,0.989-0.109    c0.964-0.199,1.716-0.715,2.197-1.586c0.13-0.232,0.233-0.484,0.319-0.736c0.26-0.775,0.338-1.576,0.28-2.387    c-0.042-0.59-0.17-1.162-0.422-1.703c-0.397-0.852-1.033-1.449-1.907-1.793c-0.456-0.18-0.93-0.293-1.419-0.307    c-0.704-0.02-1.405-0.014-2.111-0.016c-0.046,0-0.094,0.02-0.142,0.029c-0.015,0.051-0.03,0.086-0.03,0.123    c-0.002,2.775-0.002,5.553,0,8.33C63.057,54.194,63.074,54.229,63.095,54.296z" fill="#FFFFFF" fill-rule="evenodd"/><path clip-rule="evenodd" d="M47.206,45.704c-0.052,0.303-0.062,1.709-0.016,2.137    c0.082,0.014,0.166,0.033,0.252,0.037c0.113,0.008,0.231,0.004,0.346,0.004c2.788,0,5.577,0,8.368,0    c0.151,0,0.304,0.004,0.466,0.008c0.018,0.082,0.042,0.143,0.042,0.201c0.002,1.279,0.002,2.559,0,3.838    c0,0.037-0.011,0.074-0.019,0.135c-0.065,0.016-0.136,0.043-0.206,0.049c-0.115,0.008-0.231,0.002-0.346,0.002    c-2.814,0-5.629,0-8.444,0.002c-0.149,0-0.304-0.027-0.443,0.035c-0.058,0.32-0.06,1.768-0.002,2.131    c0.063,0.012,0.136,0.031,0.21,0.035c0.114,0.006,0.228,0.002,0.344,0.002c2.803,0,5.604,0,8.406,0.002    c0.149,0,0.302,0.008,0.472,0.012c0.012,0.082,0.03,0.143,0.03,0.201c0.002,1.369,0.002,2.738,0.002,4.107    c0,0.061-0.015,0.123-0.024,0.199c-0.07,0.012-0.132,0.029-0.191,0.033c-0.958,0.041-14.384,0.012-14.722-0.035    c-0.01-0.064-0.025-0.137-0.03-0.209c-0.006-0.088-0.002-0.178-0.002-0.268c0-5.578,0-11.156,0-16.734c0-0.152,0-0.305,0-0.469    c0.097-0.018,0.168-0.039,0.242-0.047c0.088-0.006,0.178-0.002,0.268-0.002c4.658,0,9.314,0,13.972,0.002    c0.15,0,0.306-0.025,0.446,0.037c0.06,0.338,0.078,2.271,0.04,4.223c-0.002,0.086-0.015,0.172-0.022,0.268    c-0.17,0.049-0.324,0.031-0.474,0.031c-2.839,0.002-5.68,0-8.521,0.002C47.5,45.673,47.346,45.649,47.206,45.704z" fill="#FFFFFF" fill-rule="evenodd"/><path clip-rule="evenodd" d="M30.408,45.688c-0.458-0.029-0.866-0.014-1.271-0.016    c-0.41-0.002-0.82,0-1.228,0c-0.397,0-0.794,0-1.191,0c-0.408,0-0.815,0-1.239,0c-0.021-0.078-0.048-0.137-0.048-0.195    c-0.002-1.408,0-2.814,0.002-4.221c0-0.023,0.01-0.051,0.02-0.096c0.062-0.016,0.132-0.041,0.204-0.047    c0.102-0.01,0.204-0.004,0.306-0.004c4.784,0,9.569,0,14.352,0.002c0.164,0,0.33-0.021,0.512,0.035    c0.052,0.371,0.018,0.74,0.023,1.107c0.007,0.383,0.002,0.766,0.002,1.15c0,0.371,0.005,0.742-0.002,1.111    c-0.004,0.369,0.026,0.738-0.021,1.109c-0.144,0.072-0.286,0.045-0.424,0.045c-1.355,0.002-2.711,0-4.068,0.002    c-0.138,0-0.275,0.006-0.432,0.01c-0.012,0.107-0.03,0.193-0.032,0.279c-0.002,0.434,0,0.869,0,1.305c0,3.695,0,7.393,0,11.09    c0,0.152,0,0.305,0,0.439c-0.149,0.121-0.296,0.076-0.432,0.076c-1.239,0.004-2.48,0.002-3.72,0.002c-0.334,0-0.666,0.002-1,0    c-0.086,0-0.172-0.01-0.282-0.018c-0.01-0.09-0.025-0.162-0.027-0.234c-0.004-0.115-0.002-0.229-0.002-0.346    c0-4.027,0-8.059,0-12.086C30.408,46.038,30.408,45.886,30.408,45.688z" fill="#FFFFFF" fill-rule="evenodd"/></g></g></svg>