<?xml version="1.0" encoding="utf-8"?>
<svg width="55" height="55" viewBox="0 0 55 55" fill="none" xmlns="http://www.w3.org/2000/svg">
<circle cx="27.5" cy="27.5" r="27.5" fill="#FFB84C"/>
<path d="M28.3069 17.3276C27.8999 16.9206 27.345 16.6618 26.753 16.6618C26.161 16.6618 25.6061 16.8837 25.199 17.3276C24.792 17.7346 24.5332 18.2895 24.5332 18.8816C24.5332 19.4736 24.7552 20.0285 25.199 20.4355C25.606 20.8425 26.161 21.1014 26.753 21.1014C27.345 21.1014 27.8999 20.8794 28.3069 20.4355C28.7139 20.0285 28.9728 19.4736 28.9728 18.8816C28.9731 18.2895 28.7139 17.7347 28.3069 17.3276ZM27.2341 19.3995C26.9381 19.6955 26.457 19.6955 26.1981 19.3995C26.0503 19.2516 25.9762 19.0666 25.9762 18.8815C25.9762 18.6965 26.0503 18.5114 26.1981 18.3635C26.346 18.2157 26.5311 18.1416 26.7161 18.1416C26.9012 18.1416 27.0862 18.2157 27.2341 18.3635C27.382 18.5114 27.456 18.6965 27.456 18.8815C27.456 19.0663 27.382 19.2885 27.2341 19.3995H27.2341Z" fill="white"/>
<path d="M15.3198 41.4139L33.0793 34.4211C33.4494 34.2732 33.6341 33.8662 33.5232 33.4962C31.6732 28.2055 27.5664 24.0985 22.2755 22.2485C21.9054 22.1006 21.4984 22.3226 21.3506 22.6924L14.3578 40.4518C14.2468 40.711 14.3209 41.0439 14.5057 41.229C14.6536 41.3768 14.8386 41.4509 15.0236 41.4509C15.1349 41.4878 15.2089 41.4506 15.3199 41.4137L15.3198 41.4139ZM22.4236 23.9135C26.7525 25.6153 30.1564 28.9822 31.8583 33.3112L16.3188 39.4158L22.4236 23.9135Z" fill="white"/>
<path d="M29.0465 24.2835C29.1575 24.3204 29.2685 24.3576 29.3795 24.3576C29.6386 24.3576 29.8974 24.2097 30.0453 23.9506C31.8952 20.2507 31.8583 15.8479 29.9712 12.148C29.7862 11.7779 29.3423 11.63 28.9722 11.815C28.6021 12.0001 28.4542 12.444 28.6393 12.8141C30.3413 16.07 30.3413 19.9918 28.7133 23.2847C28.5285 23.6546 28.6767 24.0984 29.0465 24.2835V24.2835Z" fill="white"/>
<path d="M22.4242 20.7688C22.4983 20.7688 22.5721 20.8057 22.6093 20.8057C22.9422 20.8057 23.2382 20.5837 23.3123 20.2508C23.9044 18.1789 23.4233 15.922 22.0914 14.2199C21.8322 13.887 21.3883 13.8499 21.0554 14.109C20.7225 14.3681 20.6853 14.812 20.9444 15.1449C21.9804 16.4769 22.3504 18.2528 21.9063 19.8808C21.7953 20.2509 22.0173 20.6579 22.4243 20.7688L22.4242 20.7688Z" fill="white"/>
<path d="M43.5873 25.8003C39.9244 23.9135 35.4846 23.8763 31.7847 25.7263C31.4146 25.9113 31.2667 26.3552 31.4518 26.7253C31.6368 27.0954 32.0807 27.2433 32.4508 27.0582C35.7437 25.4302 39.6656 25.4674 42.9215 27.1323C43.0324 27.2064 43.1434 27.2064 43.2544 27.2064C43.5135 27.2064 43.7724 27.0585 43.9202 26.7994C44.1053 26.4293 43.9571 25.9854 43.5873 25.8003H43.5873Z" fill="white"/>
<path d="M41.5529 33.6441C39.8508 32.3121 37.5939 31.8682 35.522 32.4231C35.115 32.5341 34.8931 32.9411 35.0041 33.3481C35.115 33.7551 35.522 33.977 35.929 33.866C37.557 33.4221 39.3329 33.7551 40.6649 34.8279C40.8128 34.9389 40.9609 34.9758 41.1088 34.9758C41.3307 34.9758 41.5527 34.8649 41.7008 34.6798C41.9599 34.3471 41.8859 33.9032 41.5529 33.6441L41.5529 33.6441Z" fill="white"/>
<path d="M41.8487 15.2559C41.7378 14.9968 41.4786 14.8489 41.1829 14.812H39.814L39.0741 13.6651C38.9262 13.4432 38.6671 13.2951 38.371 13.3322C38.075 13.3691 37.8531 13.5542 37.7421 13.8133L37.261 15.1452L35.8921 15.5153C35.633 15.5894 35.4111 15.8114 35.3742 16.1074C35.3373 16.3665 35.4482 16.6622 35.6702 16.8473L36.743 17.6613L36.632 19.0301C36.5951 19.3262 36.743 19.585 37.0021 19.7332C37.1131 19.8073 37.2241 19.8442 37.3722 19.8442C37.5201 19.8442 37.6683 19.8073 37.7792 19.6963L38.9633 18.8823L40.2584 19.3634C40.5175 19.4743 40.8133 19.4003 40.9983 19.2155C41.2203 19.0304 41.2944 18.7344 41.2203 18.4756L40.8502 17.1436L41.7382 16.0336C41.9228 15.8111 41.9597 15.5151 41.8487 15.256L41.8487 15.2559ZM39.4808 16.4769C39.3329 16.662 39.2589 16.9208 39.3329 17.1428L39.407 17.4388L39.111 17.3278C38.889 17.2537 38.6299 17.2909 38.4451 17.4019L38.2232 17.5498V17.3278C38.2232 17.0687 38.1491 16.8467 37.9271 16.6989L37.7052 16.551L38.0012 16.4769C38.2232 16.4028 38.4082 16.2549 38.4823 16.033L38.5933 15.737L38.7411 15.9589C38.889 16.1809 39.1112 16.2919 39.3701 16.2919H39.592L39.4808 16.4769Z" fill="white"/>
<path d="M34.4122 23.5805C34.9671 23.5805 35.5591 23.3585 35.9661 22.9146C36.3731 22.5076 36.632 21.9527 36.632 21.3607C36.632 20.7686 36.41 20.2138 35.9661 19.8067C35.1152 18.9558 33.7092 18.9558 32.8211 19.8067C32.4141 20.2137 32.1553 20.7686 32.1553 21.3607C32.1553 21.9527 32.3772 22.5076 32.8211 22.9146C33.265 23.3585 33.8571 23.5805 34.4122 23.5805ZM33.8942 20.8427C34.0421 20.6948 34.2272 20.6207 34.4122 20.6207C34.5972 20.6207 34.7823 20.6948 34.9302 20.8427C35.0781 20.9906 35.1521 21.1756 35.1521 21.3607C35.1521 21.5457 35.0781 21.7308 34.9302 21.8786C34.6341 22.1747 34.1903 22.1747 33.8942 21.8786C33.7463 21.7308 33.6722 21.5457 33.6722 21.3607C33.672 21.1756 33.7461 20.9537 33.8942 20.8427H33.8942Z" fill="white"/>
<path d="M36.669 26.6144C36.077 26.6144 35.5221 26.8364 35.1151 27.2803C34.7081 27.6873 34.4492 28.2422 34.4492 28.8342C34.4492 29.4262 34.6712 29.9811 35.1151 30.3882C35.5221 30.7952 36.077 31.054 36.669 31.054C37.2611 31.054 37.8159 30.832 38.223 30.3882C38.63 29.9812 38.8888 29.4263 38.8888 28.8342C38.8888 28.2422 38.6669 27.6873 38.223 27.2803C37.816 26.8364 37.2609 26.6144 36.669 26.6144ZM37.187 29.3524C36.891 29.6484 36.4099 29.6484 36.151 29.3524C36.0031 29.2045 35.9291 29.0195 35.9291 28.8344C35.9291 28.6494 36.0031 28.4643 36.151 28.3164C36.2989 28.1686 36.4839 28.0945 36.669 28.0945C36.854 28.0945 37.0391 28.1686 37.187 28.3164C37.3348 28.4643 37.4089 28.6494 37.4089 28.8344C37.4089 29.0192 37.3348 29.2043 37.187 29.3524H37.187Z" fill="white"/>
<path d="M16.1343 21.6936L16.8373 22.8405C16.9852 23.0625 17.2074 23.1735 17.4663 23.1735H17.5403C17.8364 23.1366 18.0583 22.9515 18.1693 22.6924L18.6873 21.3604L20.0562 20.9903C20.3153 20.9163 20.5372 20.6943 20.5741 20.4355C20.611 20.1764 20.5372 19.8806 20.315 19.6956L19.2422 18.8816L19.3531 17.5127C19.3901 17.2167 19.2422 16.9578 18.9831 16.8097C18.7239 16.6618 18.4282 16.6618 18.2059 16.8466L17.0219 17.6605L15.6902 17.1797C15.431 17.0688 15.1353 17.1428 14.9503 17.3276C14.7283 17.5127 14.6542 17.8087 14.7283 18.0675L15.0984 19.3995L14.1734 20.5095C13.9884 20.7315 13.9515 21.0275 14.0624 21.2866C14.1734 21.5457 14.4325 21.6936 14.7283 21.7305L16.1343 21.6936ZM16.4672 20.0288C16.6151 19.8437 16.6892 19.5849 16.6151 19.3629L16.541 19.0669L16.8371 19.1779C17.059 19.2519 17.3181 19.2148 17.5029 19.1038L17.7249 18.9559V19.1779C17.6879 19.437 17.7989 19.6589 18.0209 19.8068L18.2428 19.9547L17.9102 20.0657C17.6882 20.1397 17.5032 20.2876 17.4291 20.5096L17.2812 20.8056L17.1702 20.5836C17.0224 20.3617 16.8001 20.2507 16.5413 20.2507H16.3193L16.4672 20.0288Z" fill="white"/>
<path d="M33.0062 37.6032C32.7471 37.7142 32.5623 37.9362 32.5251 38.2322C32.4882 38.5282 32.6361 38.7871 32.8952 38.9352L34.0793 39.6383L34.1162 40.9702C34.1162 41.2662 34.3013 41.4882 34.5601 41.6361C34.6711 41.673 34.7452 41.7101 34.8562 41.7101C35.004 41.7101 35.1891 41.6361 35.3372 41.5623L36.4473 40.6742L37.8161 41.0443C38.0753 41.1184 38.371 41.0443 38.5561 40.8224C38.7411 40.6004 38.778 40.3044 38.7039 40.0453L38.186 38.7874L38.9631 37.6405C39.111 37.4185 39.1481 37.0856 39 36.8634C38.8521 36.6042 38.593 36.4933 38.2969 36.4933L36.8909 36.6042L36.04 35.5314C35.855 35.3094 35.5961 35.2354 35.3001 35.2723C35.041 35.3464 34.819 35.5314 34.7452 35.7903L34.3751 37.1222L33.0062 37.6032ZM35.226 38.3431C35.4479 38.2691 35.633 38.084 35.6699 37.8252L35.744 37.5291L35.929 37.7883C36.0769 37.9733 36.2991 38.0843 36.558 38.0474L36.8171 38.0105L36.6692 38.1955C36.5213 38.4175 36.4842 38.6766 36.5951 38.8986L36.7061 39.1577L36.4101 39.1203C36.1881 39.0462 35.929 39.1203 35.7442 39.2681L35.4851 39.4532V39.1941C35.4851 38.935 35.3372 38.713 35.115 38.602L34.93 38.4911L35.226 38.3431Z" fill="white"/>
</svg>
