<svg width="12" height="16" viewBox="0 0 12 16" fill="none" xmlns="http://www.w3.org/2000/svg">
<path d="M9.81818 1.71429H9.27273C9.27273 0.771429 8.53636 0 7.63636 0H4.36364C3.46364 0 2.72727 0.771429 2.72727 1.71429H2.18182C0.976364 1.71429 0 2.73714 0 4V13.7143C0 14.9771 0.976364 16 2.18182 16H9.81818C11.0236 16 12 14.9771 12 13.7143V4C12 2.73714 11.0236 1.71429 9.81818 1.71429ZM3.81818 1.71429C3.81818 1.4 4.06364 1.14286 4.36364 1.14286H7.63636C7.93636 1.14286 8.18182 1.4 8.18182 1.71429V2.85714C8.18182 3.17143 7.93636 3.42857 7.63636 3.42857H4.36364C4.06364 3.42857 3.81818 3.17143 3.81818 2.85714V1.71429ZM10.9091 13.7143C10.9091 14.3429 10.4182 14.8571 9.81818 14.8571H2.18182C1.58182 14.8571 1.09091 14.3429 1.09091 13.7143V4C1.09091 3.37143 1.58182 2.85714 2.18182 2.85714H2.72727C2.72727 3.8 3.46364 4.57143 4.36364 4.57143H7.63636C8.53636 4.57143 9.27273 3.8 9.27273 2.85714H9.81818C10.4182 2.85714 10.9091 3.37143 10.9091 4V13.7143Z" fill="#676C80"/>
</svg>
