<svg width="17" height="22" viewBox="0 0 17 22" fill="none" xmlns="http://www.w3.org/2000/svg">
<path d="M13.9091 2.35714H13.1364C13.1364 1.06071 12.0932 0 10.8182 0H6.18182C4.90682 0 3.86364 1.06071 3.86364 2.35714H3.09091C1.38318 2.35714 0 3.76357 0 5.5V18.8571C0 20.5936 1.38318 22 3.09091 22H13.9091C15.6168 22 17 20.5936 17 18.8571V5.5C17 3.76357 15.6168 2.35714 13.9091 2.35714ZM5.40909 2.35714C5.40909 1.925 5.75682 1.57143 6.18182 1.57143H10.8182C11.2432 1.57143 11.5909 1.925 11.5909 2.35714V3.92857C11.5909 4.36071 11.2432 4.71429 10.8182 4.71429H6.18182C5.75682 4.71429 5.40909 4.36071 5.40909 3.92857V2.35714ZM15.4545 18.8571C15.4545 19.7214 14.7591 20.4286 13.9091 20.4286H3.09091C2.24091 20.4286 1.54545 19.7214 1.54545 18.8571V5.5C1.54545 4.63571 2.24091 3.92857 3.09091 3.92857H3.86364C3.86364 5.225 4.90682 6.28571 6.18182 6.28571H10.8182C12.0932 6.28571 13.1364 5.225 13.1364 3.92857H13.9091C14.7591 3.92857 15.4545 4.63571 15.4545 5.5V18.8571Z" fill="#676C80"/>
</svg>
