<?xml version="1.0" encoding="utf-8"?>
<svg width="19" height="19" viewBox="0 0 19 19" fill="none" xmlns="http://www.w3.org/2000/svg">
<path d="M15.7541 10.6875H3.24575C2.05825 10.6875 1.58325 11.1942 1.58325 12.4529V15.6513C1.58325 16.91 2.05825 17.4167 3.24575 17.4167H15.7541C16.9416 17.4167 17.4166 16.91 17.4166 15.6513V12.4529C17.4166 11.1942 16.9416 10.6875 15.7541 10.6875Z" fill="#777A80"/>
<path d="M15.7541 1.58337H3.24575C2.05825 1.58337 1.58325 2.09004 1.58325 3.34879V6.54712C1.58325 7.80587 2.05825 8.31254 3.24575 8.31254H15.7541C16.9416 8.31254 17.4166 7.80587 17.4166 6.54712V3.34879C17.4166 2.09004 16.9416 1.58337 15.7541 1.58337Z" fill="#777A80"/>
</svg>
