<svg width="20" height="18" viewBox="0 0 20 18" fill="none" xmlns="http://www.w3.org/2000/svg">
<path fill-rule="evenodd" clip-rule="evenodd" d="M6.74023 12.23C6.74023 11.9483 6.96857 11.72 7.25023 11.72H9.80023C10.0819 11.72 10.3102 11.9483 10.3102 12.23C10.3102 12.5116 10.0819 12.74 9.80023 12.74H7.25023C6.96857 12.74 6.74023 12.5116 6.74023 12.23Z" fill="#676C80"/>
<path fill-rule="evenodd" clip-rule="evenodd" d="M6.74023 14.27C6.74023 13.9883 6.96857 13.76 7.25023 13.76H11.8402C12.1219 13.76 12.3502 13.9883 12.3502 14.27C12.3502 14.5517 12.1219 14.78 11.8402 14.78H7.25023C6.96857 14.78 6.74023 14.5517 6.74023 14.27Z" fill="#676C80"/>
<path fill-rule="evenodd" clip-rule="evenodd" d="M5.0979 7.24338C5.7847 6.61153 6.81648 6.44995 8.09945 6.44995C8.38112 6.44995 8.60945 6.67829 8.60945 6.95995C8.60945 7.24162 8.38112 7.46995 8.09945 7.46995C6.83243 7.46995 6.16421 7.64837 5.7885 7.99403C5.42545 8.32803 5.20945 8.93962 5.20945 10.19V13.25C5.20945 14.4746 5.45752 15.1993 5.88883 15.6306C6.32014 16.0619 7.04475 16.31 8.26945 16.31H11.3295C12.0394 16.31 12.5347 16.2674 12.8834 16.1854C13.2264 16.1047 13.3834 15.9961 13.4696 15.8947C13.5591 15.7894 13.6292 15.6256 13.6685 15.3204C13.7085 15.0094 13.7095 14.6213 13.7095 14.1C13.7095 13.8183 13.9378 13.59 14.2195 13.59C14.5011 13.59 14.7295 13.8183 14.7295 14.1V14.1263C14.7295 14.6149 14.7295 15.0674 14.6801 15.4507C14.6291 15.8468 14.5186 16.2355 14.2468 16.5553C13.9718 16.8788 13.5869 17.0677 13.117 17.1783C12.653 17.2875 12.0645 17.33 11.3295 17.33H8.26945C6.94415 17.33 5.88377 17.068 5.16758 16.3518C4.45139 15.6356 4.18945 14.5753 4.18945 13.25V10.19C4.18945 8.89028 4.39845 7.88687 5.0979 7.24338Z" fill="#676C80"/>
<path fill-rule="evenodd" clip-rule="evenodd" d="M11.3281 9.67992C11.3281 9.39826 11.5565 9.16992 11.8381 9.16992L17.2781 9.16992C17.5598 9.16992 17.7881 9.39826 17.7881 9.67992C17.7881 9.96159 17.5598 10.1899 17.2781 10.1899L11.8381 10.1899C11.5565 10.1899 11.3281 9.96159 11.3281 9.67992Z" fill="#676C80"/>
<path fill-rule="evenodd" clip-rule="evenodd" d="M11.3281 7.64013C11.3281 7.35846 11.5565 7.13013 11.8381 7.13013L15.9181 7.13013C16.1998 7.13013 16.4281 7.35846 16.4281 7.64013C16.4281 7.92179 16.1998 8.15013 15.9181 8.15013L11.8381 8.15013C11.5565 8.15013 11.3281 7.92179 11.3281 7.64013Z" fill="#676C80"/>
<path fill-rule="evenodd" clip-rule="evenodd" d="M11.3281 5.60009C11.3281 5.31842 11.5565 5.09009 11.8381 5.09009L13.8781 5.09009C14.1598 5.09009 14.3881 5.31842 14.3881 5.60009C14.3881 5.88175 14.1598 6.11009 13.8781 6.11009L11.8381 6.11009C11.5565 6.11009 11.3281 5.88175 11.3281 5.60009Z" fill="#676C80"/>
<path fill-rule="evenodd" clip-rule="evenodd" d="M10.4017 3.48272C11.0541 2.83028 12.0153 2.59668 13.199 2.59668H15.919C17.1026 2.59668 18.0638 2.83028 18.7162 3.48272C19.3687 4.13516 19.6023 5.09638 19.6023 6.28001V9.00001C19.6023 10.1836 19.3687 11.1449 18.7162 11.7973C18.0638 12.4497 17.1026 12.6833 15.919 12.6833H13.199C12.0153 12.6833 11.0541 12.4497 10.4017 11.7973C9.74923 11.1449 9.51562 10.1836 9.51562 9.00001V6.28001C9.51562 5.09638 9.74923 4.13516 10.4017 3.48272ZM11.1229 4.20397C10.7554 4.57153 10.5356 5.19698 10.5356 6.28001V9.00001C10.5356 10.083 10.7554 10.7085 11.1229 11.0761C11.4905 11.4436 12.1159 11.6633 13.199 11.6633H15.919C17.002 11.6633 17.6274 11.4436 17.995 11.0761C18.3626 10.7085 18.5823 10.083 18.5823 9.00001V6.28001C18.5823 5.19698 18.3626 4.57153 17.995 4.20397C17.6274 3.83641 17.002 3.61668 15.919 3.61668H13.199C12.1159 3.61668 11.4905 3.83641 11.1229 4.20397Z" fill="#676C80"/>
<path d="M8.27995 3.62231H3.69661C2.54661 3.62231 1.61328 4.55565 1.61328 5.70565C1.61328 6.21892 1.79921 6.68903 2.10734 7.05227C2.28079 7.25674 2.49297 7.42734 2.73251 7.55271" stroke="#676C80" stroke-width="1.1" stroke-miterlimit="10" stroke-linecap="round" stroke-linejoin="round"/>
<path d="M8 4.6641L9.06667 3.59743L8 2.53076" stroke="#676C80" stroke-width="0.9" stroke-linecap="round" stroke-linejoin="round"/>
</svg>
