<svg width="17" height="17" viewBox="0 0 17 17" fill="none" xmlns="http://www.w3.org/2000/svg">
<path d="M8.5 1.41675V6.37508L9.91667 4.95841" stroke="#676C80" stroke-width="1.2" stroke-linecap="round" stroke-linejoin="round"/>
<path d="M8.50065 6.37492L7.08398 4.95825" stroke="#676C80" stroke-width="1.2" stroke-linecap="round" stroke-linejoin="round"/>
<path d="M1.40234 9.20825H4.52609C4.79526 9.20825 5.03609 9.357 5.15651 9.59784L5.98526 11.2553C6.22609 11.737 6.71484 12.0416 7.25318 12.0416H9.75359C10.2919 12.0416 10.7807 11.737 11.0215 11.2553L11.8503 9.59784C11.9707 9.357 12.2186 9.20825 12.4807 9.20825H15.569" stroke="#676C80" stroke-width="1.2" stroke-linecap="round" stroke-linejoin="round"/>
<path d="M4.95768 2.92554C2.45018 3.29387 1.41602 4.7672 1.41602 7.79179V10.6251C1.41602 14.1668 2.83268 15.5835 6.37435 15.5835H10.6243C14.166 15.5835 15.5827 14.1668 15.5827 10.6251V7.79179C15.5827 4.7672 14.5485 3.29387 12.041 2.92554" stroke="#676C80" stroke-width="1.2" stroke-linecap="round" stroke-linejoin="round"/>
</svg>
