<?xml version="1.0" encoding="utf-8"?><svg version="1.1" id="Layer_1" xmlns="http://www.w3.org/2000/svg" xmlns:xlink="http://www.w3.org/1999/xlink" x="0px" y="0px" viewBox="0 0 109.33 122.88" style="enable-background:new 0 0 109.33 122.88" xml:space="preserve"><style type="text/css"><![CDATA[
	.st0{fill:#FFFFFF;}
	.st1{fill-rule:evenodd;clip-rule:evenodd;fill:#262626;}
	.st2{fill-rule:evenodd;clip-rule:evenodd;fill:#FF0000;}
]]></style><g><path class="st1" d="M82.28,105.33h-10.8V90.47H56.14v14.86H45l18.64,17.54L82.28,105.33L82.28,105.33z M102.4,33.95H83.61 c-1.98,0-4.73-1.06-6.03-2.36c-1.3-1.3-2.09-3.65-2.09-5.61V6.95l0,0H25.83c-0.16,0-0.29,0.08-0.37,0.16 c-0.14,0.09-0.18,0.21-0.18,0.38v87.74c0,0.12,0.09,0.29,0.16,0.37c0.09,0.13,0.26,0.16,0.38,0.16h12.96 c-1.03,2.17-1.79,4.49-2.23,6.92H23.7c-1.46,0-2.76-0.59-3.73-1.55c-0.96-0.96-1.54-2.26-1.54-3.73V5.32 c0-1.46,0.59-2.76,1.54-3.73c0.97-0.97,2.31-1.55,3.73-1.55h55.31C79.13,0,79.25,0,79.38,0c0.58,0,1.18,0.25,1.59,0.62h0.08 c0.09,0.05,0.13,0.09,0.21,0.16l27.27,27.61c0.46,0.46,0.8,1.09,0.8,1.8c0,0.21-0.04,0.37-0.08,0.6c0,25.22,0,41.39,0,66.61 c0,1.46-0.59,2.77-1.55,3.73c-0.97,0.96-2.27,1.55-3.73,1.55H90c-0.44-2.43-1.19-4.75-2.23-6.92h14.07c0.16,0,0.16-0.08,0.25-0.16 c0.13-0.08,0.3-0.26,0.3-0.37C102.39,71.78,102.4,57.39,102.4,33.95L102.4,33.95z M81.73,25.43V8.12l19.49,19.74H84.16 c-0.67,0-1.26-0.29-1.72-0.71C82.01,26.74,81.73,26.1,81.73,25.43L81.73,25.43L81.73,25.43z"/><polygon class="st2" points="0,38.51 88.91,38.51 88.91,81.22 0,81.22 0,38.51"/><path class="st0" d="M8.32,48.47h10.52c2.07,0,3.75,0.28,5.02,0.84c1.27,0.56,2.33,1.36,3.17,2.41c0.83,1.05,1.43,2.27,1.81,3.66 c0.38,1.39,0.57,2.86,0.57,4.42c0,2.44-0.28,4.32-0.84,5.67c-0.55,1.34-1.33,2.47-2.32,3.38c-0.99,0.91-2.05,1.51-3.19,1.81 c-1.55,0.41-2.96,0.62-4.22,0.62H8.32V48.47L8.32,48.47z M15.39,53.63v12.45h1.74c1.48,0,2.54-0.17,3.17-0.49 c0.62-0.33,1.11-0.9,1.47-1.71c0.36-0.82,0.53-2.13,0.53-3.96c0-2.41-0.39-4.06-1.19-4.96s-2.11-1.34-3.95-1.34H15.39L15.39,53.63z M31.9,59.88c0-3.72,1.04-6.62,3.12-8.69c2.08-2.07,4.98-3.11,8.71-3.11c3.81,0,6.75,1.02,8.81,3.05c2.06,2.04,3.09,4.89,3.09,8.56 c0,2.66-0.45,4.84-1.35,6.55c-0.9,1.7-2.21,3.03-3.91,3.98c-1.71,0.95-3.83,1.42-6.37,1.42c-2.58,0-4.72-0.41-6.41-1.22 c-1.69-0.82-3.07-2.12-4.12-3.89C32.42,64.77,31.9,62.55,31.9,59.88L31.9,59.88z M38.97,59.9c0,2.3,0.43,3.95,1.29,4.96 c0.86,1,2.04,1.51,3.52,1.51c1.52,0,2.7-0.49,3.53-1.47c0.84-0.99,1.25-2.75,1.25-5.3c0-2.14-0.44-3.71-1.31-4.7 c-0.87-0.99-2.05-1.49-3.55-1.49c-1.43,0-2.58,0.5-3.44,1.51C39.4,55.92,38.97,57.58,38.97,59.9L38.97,59.9z M74.38,61.94 l6.21,1.86c-0.42,1.73-1.07,3.18-1.97,4.34c-0.9,1.16-2,2.04-3.34,2.63c-1.33,0.59-3.02,0.88-5.07,0.88c-2.5,0-4.53-0.36-6.11-1.08 c-1.58-0.72-2.94-1.99-4.08-3.8c-1.15-1.81-1.72-4.13-1.72-6.96c0-3.77,1.01-6.67,3.02-8.69c2.02-2.02,4.87-3.04,8.56-3.04 c2.88,0,5.16,0.58,6.81,1.74c1.65,1.16,2.88,2.95,3.68,5.35l-6.24,1.37c-0.22-0.69-0.45-1.19-0.69-1.51 c-0.4-0.54-0.89-0.95-1.46-1.24c-0.58-0.29-1.22-0.44-1.92-0.44c-1.61,0-2.84,0.64-3.69,1.92c-0.65,0.95-0.97,2.45-0.97,4.48 c0,2.53,0.38,4.25,1.16,5.19c0.77,0.93,1.86,1.4,3.25,1.4c1.35,0,2.38-0.38,3.07-1.13C73.56,64.47,74.07,63.38,74.38,61.94 L74.38,61.94z"/></g></svg>