<svg width="80" height="79" viewBox="0 0 80 79" fill="none" xmlns="http://www.w3.org/2000/svg">
<circle cx="40" cy="39.5" r="38.75" stroke="#1DB8BA" stroke-width="1.5"/>
<circle cx="39.9997" cy="39.5002" r="34.7121" fill="#1DB8BA"/>
<path d="M42.8832 24.8499L45.8165 30.7166C46.2165 31.5332 47.2832 32.3166 48.1832 32.4666L53.4998 33.3499C56.8998 33.9166 57.6998 36.3832 55.2498 38.8166L51.1165 42.9499C50.4165 43.6499 50.0332 44.9999 50.2498 45.9666L51.4332 51.0832C52.3665 55.1332 50.2165 56.6999 46.6332 54.5832L41.6498 51.6332C40.7498 51.0999 39.2665 51.0999 38.3498 51.6332L33.3665 54.5832C29.7998 56.6999 27.6332 55.1166 28.5665 51.0832L29.7498 45.9666C29.9665 44.9999 29.5832 43.6499 28.8832 42.9499L24.7498 38.8166C22.3165 36.3832 23.0998 33.9166 26.4998 33.3499L31.8165 32.4666C32.6998 32.3166 33.7665 31.5332 34.1665 30.7166L37.0998 24.8499C38.6998 21.6666 41.2998 21.6666 42.8832 24.8499Z" stroke="white" stroke-width="3" stroke-linecap="round" stroke-linejoin="round"/>
</svg>
