<?xml version="1.0" encoding="utf-8"?>
<svg width="23" height="23" viewBox="0 0 23 23" fill="none" xmlns="http://www.w3.org/2000/svg">
<path d="M21.1331 13.56C21.1472 13.494 21.1773 13.4325 21.2208 13.381C21.2643 13.3294 21.3198 13.2893 21.3824 13.2643L22.7696 12.7099C22.8172 12.6914 22.859 12.6605 22.8907 12.6204C22.9224 12.5803 22.9428 12.5326 22.9499 12.482C23.0091 11.8287 23.0091 11.1715 22.9499 10.5182V10.5125C22.9428 10.4615 22.9222 10.4135 22.8902 10.3732C22.8582 10.333 22.816 10.3021 22.768 10.2837L21.3824 9.7322C21.3198 9.70718 21.2643 9.66711 21.2208 9.61554C21.1773 9.56397 21.1472 9.50249 21.1331 9.43653C20.8835 8.26491 20.4208 7.14911 19.7681 6.14466C19.7314 6.08817 19.7092 6.02352 19.7034 5.95642C19.6976 5.88932 19.7084 5.82182 19.7348 5.75987L20.3213 4.38539C20.3438 4.33949 20.353 4.28813 20.3476 4.23727C20.3422 4.1864 20.3225 4.13809 20.2909 4.09792C19.8682 3.59622 19.4031 3.13182 18.9008 2.70989C18.8607 2.677 18.812 2.65621 18.7605 2.64996C18.7091 2.6437 18.6568 2.65224 18.61 2.67457L17.2347 3.25935C17.1728 3.28579 17.1053 3.29658 17.0382 3.29078C16.9711 3.28498 16.9064 3.26276 16.8499 3.22609C15.8455 2.57334 14.7297 2.11065 13.5581 1.86105C13.4921 1.84698 13.4306 1.81687 13.3791 1.7734C13.3275 1.72992 13.2874 1.67441 13.2624 1.61178L12.708 0.224563C12.6895 0.17727 12.6589 0.135713 12.6191 0.104119C12.5794 0.072525 12.532 0.0520212 12.4817 0.0446933C11.8284 -0.0148978 11.1709 -0.0148978 10.5175 0.0446933C10.4659 0.0511011 10.417 0.0714077 10.376 0.103447C10.3349 0.135486 10.3034 0.178057 10.2847 0.226616L9.7303 1.61178C9.70528 1.67441 9.66521 1.72992 9.61364 1.7734C9.56207 1.81687 9.50059 1.84698 9.43462 1.86105C8.26301 2.11065 7.14721 2.57334 6.14276 3.22609C6.08635 3.26297 6.02169 3.28531 5.95455 3.29111C5.8874 3.29691 5.81987 3.286 5.75797 3.25935L4.38307 2.67293C4.33716 2.6504 4.28582 2.6413 4.23496 2.64668C4.1841 2.65205 4.1358 2.67169 4.09561 2.70332C3.59414 3.12612 3.1299 3.59119 2.70799 4.09341C2.67505 4.13349 2.65423 4.18214 2.64798 4.23364C2.64172 4.28514 2.65029 4.33735 2.67267 4.38415L3.2595 5.75946C3.28594 5.82141 3.29673 5.88891 3.29093 5.95601C3.28513 6.02311 3.26292 6.08776 3.22624 6.14425C2.5735 7.1487 2.11081 8.2645 1.8612 9.43611C1.84713 9.50208 1.81703 9.56356 1.77355 9.61513C1.73007 9.6667 1.67457 9.70677 1.61193 9.73179L0.224715 10.2862C0.177259 10.3048 0.135593 10.3356 0.103986 10.3756C0.07238 10.4156 0.0519694 10.4632 0.0448455 10.5137C-0.0149485 11.1671 -0.0149485 11.8245 0.0448455 12.4779C0.0512533 12.5295 0.0715599 12.5785 0.103599 12.6195C0.135639 12.6605 0.178209 12.692 0.226769 12.7107L1.60988 13.2639C1.67251 13.2889 1.72802 13.329 1.7715 13.3806C1.81497 13.4321 1.84508 13.4936 1.85915 13.5596C2.10875 14.7312 2.57144 15.847 3.22419 16.8514C3.26086 16.9079 3.28308 16.9726 3.28888 17.0397C3.29468 17.1068 3.28389 17.1743 3.25745 17.2362L2.67103 18.6111C2.6483 18.657 2.63905 18.7083 2.64435 18.7592C2.64966 18.8101 2.66931 18.8584 2.701 18.8986C3.12369 19.4014 3.58891 19.8669 4.09151 20.2899C4.13157 20.3229 4.18022 20.3437 4.23173 20.35C4.28324 20.3562 4.33546 20.3476 4.38225 20.3252L5.75756 19.7384C5.81946 19.7117 5.88699 19.7008 5.95414 19.7066C6.02128 19.7124 6.08594 19.7348 6.14235 19.7716C7.14679 20.4244 8.2626 20.8871 9.43421 21.1367C9.50018 21.1508 9.56166 21.1809 9.61323 21.2243C9.6648 21.2678 9.70487 21.3233 9.72989 21.386L10.2843 22.7732C10.3028 22.8208 10.3337 22.8625 10.3738 22.8942C10.4138 22.9259 10.4616 22.9464 10.5122 22.9535C11.1655 23.0126 11.8227 23.0126 12.476 22.9535C12.5277 22.947 12.5766 22.9266 12.6177 22.8945C12.6587 22.8624 12.6902 22.8198 12.7088 22.7711L13.262 21.3843C13.287 21.3217 13.3271 21.2662 13.3786 21.2227C13.4302 21.1792 13.4917 21.1491 13.5577 21.135C14.7293 20.8854 15.8451 20.4228 16.8495 19.77C16.906 19.7333 16.9707 19.7111 17.0378 19.7053C17.1049 19.6995 17.1724 19.7103 17.2343 19.7367L18.6088 20.3232C18.6546 20.3461 18.706 20.3555 18.7569 20.3502C18.8079 20.3449 18.8562 20.3251 18.8963 20.2932C19.3981 19.8705 19.8625 19.4053 20.2843 18.9027C20.3175 18.8627 20.3385 18.8141 20.3448 18.7626C20.3512 18.711 20.3426 18.6587 20.32 18.6119L19.7332 17.2366C19.7068 17.1747 19.696 17.1072 19.7018 17.0401C19.7076 16.973 19.7298 16.9083 19.7665 16.8518C20.4198 15.8475 20.883 14.7317 21.1331 13.56ZM11.4961 20.1219C9.7905 20.1219 8.12316 19.6162 6.70497 18.6686C5.28677 17.7209 4.18143 16.3741 3.52871 14.7983C2.87598 13.2225 2.7052 11.4885 3.03796 9.81561C3.37071 8.14274 4.19206 6.60611 5.39813 5.40003C6.6042 4.19396 8.14083 3.37261 9.81371 3.03986C11.4866 2.7071 13.2206 2.87788 14.7964 3.53061C16.3722 4.18333 17.719 5.28868 18.6666 6.70687C19.6143 8.12506 20.12 9.7924 20.12 11.498C20.1174 13.7844 19.208 15.9765 17.5913 17.5932C15.9745 19.2099 13.7825 20.1193 11.4961 20.1219Z" fill="white"/>
<path d="M16.4223 17.2473V17.543C15.0315 18.6797 13.2905 19.3007 11.4943 19.3007C9.69814 19.3007 7.95717 18.6797 6.56641 17.543V17.2473C6.56641 15.9403 7.0856 14.6869 8.00977 13.7627C8.93393 12.8386 10.1874 12.3194 11.4943 12.3194C12.8013 12.3194 14.0548 12.8386 14.9789 13.7627C15.9031 14.6869 16.4223 15.9403 16.4223 17.2473Z" fill="white"/>
<path d="M11.4952 11.498C12.1485 11.4974 12.7748 11.2376 13.2368 10.7756C13.6987 10.3137 13.9585 9.68737 13.9592 9.03408V8.21276C13.9592 7.55927 13.6996 6.93255 13.2375 6.47047C12.7754 6.00838 12.1487 5.74879 11.4952 5.74879C10.8417 5.74879 10.215 6.00838 9.75293 6.47047C9.29085 6.93255 9.03125 7.55927 9.03125 8.21276V9.03408C9.0319 9.68737 9.29171 10.3137 9.75365 10.7756C10.2156 11.2376 10.8419 11.4974 11.4952 11.498Z" fill="white"/>
</svg>
