<svg width="20" height="20" viewBox="0 0 20 20" fill="none" xmlns="http://www.w3.org/2000/svg">
<path d="M7.08341 15.8334H6.66675C3.33341 15.8334 1.66675 15.0001 1.66675 10.8334V6.66675C1.66675 3.33341 3.33341 1.66675 6.66675 1.66675H13.3334C16.6667 1.66675 18.3334 3.33341 18.3334 6.66675V10.8334C18.3334 14.1667 16.6667 15.8334 13.3334 15.8334H12.9167C12.6584 15.8334 12.4084 15.9584 12.2501 16.1667L11.0001 17.8334C10.4501 18.5667 9.55008 18.5667 9.00008 17.8334L7.75008 16.1667C7.61675 15.9834 7.30841 15.8334 7.08341 15.8334Z" stroke="white" stroke-width="1.5" stroke-miterlimit="10" stroke-linecap="round" stroke-linejoin="round"/>
<path d="M13.3303 9.16667H13.3378" stroke="white" stroke-width="2" stroke-linecap="round" stroke-linejoin="round"/>
<path d="M9.99632 9.16667H10.0038" stroke="white" stroke-width="2" stroke-linecap="round" stroke-linejoin="round"/>
<path d="M6.66209 9.16667H6.66957" stroke="white" stroke-width="2" stroke-linecap="round" stroke-linejoin="round"/>
</svg>
