<?xml version="1.0" encoding="utf-8"?>
<svg width="16" height="20" viewBox="0 0 16 20" fill="none" xmlns="http://www.w3.org/2000/svg">
<path fill-rule="evenodd" clip-rule="evenodd" d="M2.56001 4.5292C1.7987 4.5292 1.18154 5.14636 1.18154 5.90767V16.7385C1.18154 17.4998 1.7987 18.1169 2.56001 18.1169H9.45234C10.2136 18.1169 10.8308 17.4998 10.8308 16.7385V15.4615H12.0123V16.7385C12.0123 18.1523 10.8662 19.2985 9.45234 19.2985H2.56001C1.14615 19.2985 0 18.1523 0 16.7385V5.90767C0 4.49381 1.14615 3.34766 2.56001 3.34766L3.96011 3.34766V4.5292L2.56001 4.5292Z" fill="white"/>
<path fill-rule="evenodd" clip-rule="evenodd" d="M5.51402 1.35618C4.77991 1.35618 4.18479 1.95129 4.18479 2.68541V13.7847C4.18479 14.5189 4.77991 15.114 5.51402 15.114H13.391C14.1251 15.114 14.7202 14.5189 14.7202 13.7847V7.10252C14.7202 6.77759 14.6012 6.46392 14.3857 6.22078L10.4701 1.80367C10.2179 1.51908 9.85575 1.35618 9.47544 1.35618H5.51402ZM2.90479 2.68541C2.90479 1.24437 4.07298 0.0761719 5.51402 0.0761719H9.47544C10.222 0.0761719 10.9328 0.395944 11.428 0.954592L15.3435 5.3717C15.7666 5.84898 16.0002 6.4647 16.0002 7.10252V13.7847C16.0002 15.2258 14.832 16.394 13.391 16.394H5.51402C4.07298 16.394 2.90479 15.2258 2.90479 13.7847V2.68541Z" fill="white"/>
<path fill-rule="evenodd" clip-rule="evenodd" d="M9.57151 0L15.9165 6.34497L15.0096 6.64725C14.8977 6.68458 14.7479 6.7432 14.5598 6.81685C13.9855 7.04169 13.0534 7.40664 11.7437 7.73406L11.7032 7.74419L11.6616 7.74852C11.0623 7.81094 10.5565 7.76121 10.1388 7.59395C9.70976 7.42212 9.40961 7.14021 9.21247 6.80754C8.85992 6.2126 8.86084 5.4786 8.86137 5.05833C8.86139 5.04266 8.86141 5.02743 8.86141 5.01265L8.86141 4.97067L9.57151 0ZM10.407 2.50643L10.043 5.05438C10.0439 5.5208 10.0625 5.92434 10.2289 6.20518C10.3003 6.32566 10.403 6.42697 10.5781 6.4971C10.7593 6.56966 11.0473 6.61984 11.4988 6.57735C12.509 6.3227 13.2195 6.06676 13.7594 5.85886L10.407 2.50643Z" fill="white"/>
<path fill-rule="evenodd" clip-rule="evenodd" d="M5.51416 10.3385C5.51416 10.0666 5.7532 9.84619 6.04807 9.84619H11.8726C12.1674 9.84619 12.4065 10.0666 12.4065 10.3385C12.4065 10.6104 12.1674 10.8308 11.8726 10.8308H6.04807C5.7532 10.8308 5.51416 10.6104 5.51416 10.3385Z" fill="white"/>
<path fill-rule="evenodd" clip-rule="evenodd" d="M5.51416 12.3077C5.51416 12.0358 5.7532 11.8154 6.04807 11.8154H11.8726C12.1674 11.8154 12.4065 12.0358 12.4065 12.3077C12.4065 12.5796 12.1674 12.8 11.8726 12.8H6.04807C5.7532 12.8 5.51416 12.5796 5.51416 12.3077Z" fill="white"/>
</svg>
