<svg width="22" height="22" viewBox="0 0 22 22" fill="none" xmlns="http://www.w3.org/2000/svg">
<g id="vuesax/linear/data">
<g id="vuesax/linear/data_2">
<g id="data">
<path id="Vector" d="M18.3333 12.8333C19.3459 12.8333 20.1667 12.0125 20.1667 11C20.1667 9.98748 19.3459 9.16667 18.3333 9.16667C17.3208 9.16667 16.5 9.98748 16.5 11C16.5 12.0125 17.3208 12.8333 18.3333 12.8333Z" stroke="white" stroke-width="1.5" stroke-linecap="round" stroke-linejoin="round"/>
<path id="Vector_2" d="M18.3333 5.5C19.3459 5.5 20.1667 4.67919 20.1667 3.66667C20.1667 2.65414 19.3459 1.83333 18.3333 1.83333C17.3208 1.83333 16.5 2.65414 16.5 3.66667C16.5 4.67919 17.3208 5.5 18.3333 5.5Z" stroke="white" stroke-width="1.5" stroke-linecap="round" stroke-linejoin="round"/>
<path id="Vector_3" d="M18.3333 20.1667C19.3459 20.1667 20.1667 19.3459 20.1667 18.3333C20.1667 17.3208 19.3459 16.5 18.3333 16.5C17.3208 16.5 16.5 17.3208 16.5 18.3333C16.5 19.3459 17.3208 20.1667 18.3333 20.1667Z" stroke="white" stroke-width="1.5" stroke-linecap="round" stroke-linejoin="round"/>
<path id="Vector_4" d="M3.66536 12.8333C4.67789 12.8333 5.4987 12.0125 5.4987 11C5.4987 9.98748 4.67789 9.16667 3.66536 9.16667C2.65284 9.16667 1.83203 9.98748 1.83203 11C1.83203 12.0125 2.65284 12.8333 3.66536 12.8333Z" stroke="white" stroke-width="1.5" stroke-linecap="round" stroke-linejoin="round"/>
<path id="Vector_5" d="M5.5 11H16.5" stroke="white" stroke-width="1.5" stroke-linecap="round" stroke-linejoin="round"/>
<path id="Vector_6" d="M16.4987 3.66667H12.832C10.9987 3.66667 10.082 4.58333 10.082 6.41667V15.5833C10.082 17.4167 10.9987 18.3333 12.832 18.3333H16.4987" stroke="white" stroke-width="1.5" stroke-linecap="round" stroke-linejoin="round"/>
</g>
</g>
</g>
</svg>
