<svg width="29" height="29" viewBox="0 0 29 29" fill="none" xmlns="http://www.w3.org/2000/svg">
<path d="M21.2223 6.83331H13.4445C9.55565 6.83331 7.61121 8.77775 7.61121 12.6666V25.3055C7.61121 25.8402 8.04871 26.2777 8.58343 26.2777H21.2223C25.1112 26.2777 27.0556 24.3333 27.0556 20.4444V12.6666C27.0556 8.77775 25.1112 6.83331 21.2223 6.83331Z" stroke="white" stroke-width="1.8" stroke-linecap="round" stroke-linejoin="round"/>
<path d="M12.6667 16.5555H20.8334" stroke="white" stroke-width="1.8" stroke-miterlimit="10" stroke-linecap="round" stroke-linejoin="round"/>
<path d="M12.6667 12.6666H22.389" stroke="white" stroke-width="1.8" stroke-miterlimit="10" stroke-linecap="round" stroke-linejoin="round"/>
<path d="M13.4446 20.4444H18.1112" stroke="white" stroke-width="1.8" stroke-miterlimit="10" stroke-linecap="round" stroke-linejoin="round"/>
<path d="M18.1111 3.94437C17.3981 3.22215 16.6852 1.77771 14.1866 1.77771H6.6514C2.8838 1.77771 1 3.79993 1 7.84437V20.9888C1 21.5449 1.42385 21.9999 1.9419 21.9999H4.05555" stroke="white" stroke-width="1.8" stroke-linecap="round" stroke-linejoin="round"/>
</svg>
