<?xml version="1.0" encoding="utf-8"?>
<svg width="21" height="21" viewBox="0 0 21 21" fill="none" xmlns="http://www.w3.org/2000/svg">
<path d="M19.25 10.5C19.25 5.67 15.33 1.75 10.5 1.75C5.67 1.75 1.75 5.67 1.75 10.5C1.75 15.33 5.67 19.25 10.5 19.25" stroke="white" stroke-width="1.2" stroke-linecap="round" stroke-linejoin="round"/>
<path d="M6.9999 2.625H7.8749C6.16865 7.735 6.16865 13.265 7.8749 18.375H6.9999" stroke="white" stroke-width="1.2" stroke-linecap="round" stroke-linejoin="round"/>
<path d="M13.125 2.625C13.9738 5.18 14.4025 7.84 14.4025 10.5" stroke="white" stroke-width="1.2" stroke-linecap="round" stroke-linejoin="round"/>
<path d="M2.625 14V13.125C5.18 13.9737 7.84 14.4025 10.5 14.4025" stroke="white" stroke-width="1.2" stroke-linecap="round" stroke-linejoin="round"/>
<path d="M2.625 7.87499C7.735 6.16874 13.265 6.16874 18.375 7.87499" stroke="white" stroke-width="1.2" stroke-linecap="round" stroke-linejoin="round"/>
<path d="M17.0625 12.8625C16.7388 12.7662 16.3713 12.705 15.9688 12.705C14.1575 12.705 12.6963 14.175 12.6963 15.9775C12.6963 17.7887 14.1663 19.25 15.9688 19.25C17.7713 19.25 19.2413 17.78 19.2413 15.9775C19.2413 15.3037 19.04 14.6737 18.69 14.1575" stroke="white" stroke-width="1.2" stroke-linecap="round" stroke-linejoin="round"/>
<path d="M17.5352 12.95L16.4414 11.6987" stroke="white" stroke-width="1.2" stroke-linecap="round" stroke-linejoin="round"/>
<path d="M17.5351 12.95L16.2576 13.8775" stroke="white" stroke-width="1.2" stroke-linecap="round" stroke-linejoin="round"/>
</svg>
