<svg width="39" height="39" viewBox="0 0 39 39" fill="none" xmlns="http://www.w3.org/2000/svg">
<circle cx="19.5" cy="19.5" r="19.5" fill="white"/>
<path d="M29.1384 21.56C29.1525 21.494 29.1826 21.4325 29.2261 21.381C29.2695 21.3294 29.3251 21.2893 29.3877 21.2643L30.7753 20.7099C30.8229 20.6914 30.8647 20.6605 30.8964 20.6204C30.9281 20.5803 30.9485 20.5326 30.9556 20.482C31.0148 19.8287 31.0148 19.1715 30.9556 18.5182V18.5125C30.9485 18.4615 30.9279 18.4135 30.8959 18.3732C30.8639 18.333 30.8217 18.3021 30.7736 18.2837L29.3877 17.7322C29.3251 17.7072 29.2695 17.6671 29.2261 17.6155C29.1826 17.564 29.1525 17.5025 29.1384 17.4365C28.8887 16.2649 28.4259 15.1491 27.773 14.1447C27.7363 14.0882 27.7141 14.0235 27.7083 13.9564C27.7025 13.8893 27.7133 13.8218 27.7397 13.7599L28.3263 12.3854C28.3489 12.3395 28.358 12.2881 28.3526 12.2373C28.3473 12.1864 28.3276 12.1381 28.2959 12.0979C27.8731 11.5962 27.4079 11.1318 26.9055 10.7099C26.8654 10.677 26.8167 10.6562 26.7652 10.65C26.7137 10.6437 26.6615 10.6522 26.6147 10.6746L25.239 11.2594C25.177 11.2858 25.1095 11.2966 25.0424 11.2908C24.9753 11.285 24.9106 11.2628 24.8541 11.2261C23.8494 10.5733 22.7333 10.1107 21.5614 9.86105C21.4955 9.84698 21.434 9.81687 21.3824 9.7734C21.3308 9.72992 21.2907 9.67441 21.2657 9.61178L20.7112 8.22456C20.6927 8.17727 20.662 8.13571 20.6223 8.10412C20.5825 8.07252 20.5351 8.05202 20.4848 8.04469C19.8313 7.9851 19.1737 7.9851 18.5201 8.04469C18.4685 8.0511 18.4195 8.07141 18.3785 8.10345C18.3375 8.13549 18.306 8.17806 18.2872 8.22662L17.7327 9.61178C17.7077 9.67441 17.6676 9.72992 17.616 9.7734C17.5644 9.81687 17.5029 9.84698 17.437 9.86105C16.2651 10.1107 15.149 10.5733 14.1443 11.2261C14.0879 11.263 14.0232 11.2853 13.956 11.2911C13.8889 11.2969 13.8213 11.286 13.7594 11.2594L12.3842 10.6729C12.3382 10.6504 12.2869 10.6413 12.236 10.6467C12.1851 10.6521 12.1368 10.6717 12.0966 10.7033C11.595 11.1261 11.1307 11.5912 10.7087 12.0934C10.6757 12.1335 10.6549 12.1821 10.6486 12.2336C10.6424 12.2851 10.6509 12.3374 10.6733 12.3842L11.2603 13.7595C11.2868 13.8214 11.2976 13.8889 11.2917 13.956C11.2859 14.0231 11.2637 14.0878 11.227 14.1442C10.5741 15.1487 10.1113 16.2645 9.86166 17.4361C9.84759 17.5021 9.81748 17.5636 9.77399 17.6151C9.7305 17.6667 9.67498 17.7068 9.61233 17.7318L8.22477 18.2862C8.1773 18.3048 8.13563 18.3356 8.10401 18.3756C8.0724 18.4156 8.05198 18.4632 8.04486 18.5137C7.98505 19.1671 7.98505 19.8245 8.04486 20.4779C8.05127 20.5295 8.07158 20.5785 8.10362 20.6195C8.13567 20.6605 8.17825 20.692 8.22682 20.7107L9.61028 21.2639C9.67293 21.2889 9.72845 21.329 9.77194 21.3805C9.81542 21.4321 9.84553 21.4936 9.85961 21.5596C10.1093 22.7312 10.5721 23.847 11.225 24.8514C11.2617 24.9079 11.2839 24.9726 11.2897 25.0397C11.2955 25.1068 11.2847 25.1743 11.2583 25.2362L10.6717 26.6111C10.649 26.657 10.6397 26.7083 10.645 26.7592C10.6503 26.8101 10.67 26.8584 10.7017 26.8986C11.1245 27.4014 11.5898 27.8669 12.0925 28.2899C12.1326 28.3229 12.1813 28.3437 12.2328 28.35C12.2843 28.3562 12.3365 28.3476 12.3833 28.3252L13.759 27.7384C13.8209 27.7117 13.8885 27.7008 13.9556 27.7066C14.0228 27.7124 14.0875 27.7348 14.1439 27.7716C15.1486 28.4244 16.2646 28.8871 17.4366 29.1367C17.5025 29.1508 17.564 29.1809 17.6156 29.2243C17.6672 29.2678 17.7073 29.3233 17.7323 29.386L18.2868 30.7732C18.3054 30.8208 18.3363 30.8625 18.3764 30.8942C18.4164 30.9259 18.4642 30.9464 18.5148 30.9534C19.1682 31.0126 19.8257 31.0126 20.4791 30.9534C20.5308 30.947 20.5798 30.9266 20.6208 30.8945C20.6618 30.8624 20.6933 30.8198 20.712 30.7711L21.2653 29.3843C21.2903 29.3217 21.3304 29.2662 21.382 29.2227C21.4335 29.1792 21.495 29.1491 21.561 29.135C22.7329 28.8854 23.849 28.4227 24.8537 27.77C24.9102 27.7333 24.9749 27.7111 25.042 27.7053C25.1091 27.6995 25.1766 27.7103 25.2386 27.7367L26.6134 28.3232C26.6592 28.3461 26.7106 28.3555 26.7616 28.3502C26.8125 28.3449 26.8609 28.3251 26.901 28.2932C27.4029 27.8705 27.8674 27.4053 28.2893 26.9027C28.3225 26.8627 28.3435 26.8141 28.3499 26.7626C28.3562 26.711 28.3476 26.6587 28.3251 26.6119L27.7381 25.2366C27.7116 25.1747 27.7009 25.1072 27.7067 25.0401C27.7125 24.973 27.7347 24.9083 27.7714 24.8518C28.4248 23.8475 28.8882 22.7317 29.1384 21.56ZM19.499 28.1219C17.7929 28.1219 16.1252 27.6162 14.7066 26.6685C13.2881 25.7209 12.1825 24.3741 11.5296 22.7983C10.8767 21.2225 10.7059 19.4885 11.0387 17.8156C11.3715 16.1427 12.1931 14.6061 13.3995 13.4C14.6058 12.194 16.1429 11.3726 17.8161 11.0399C19.4894 10.7071 21.2238 10.8779 22.8 11.5306C24.3762 12.1833 25.7234 13.2887 26.6713 14.7069C27.6191 16.1251 28.125 17.7924 28.125 19.498C28.1224 21.7844 27.2128 23.9764 25.5956 25.5932C23.9785 27.2099 21.786 28.1193 19.499 28.1219Z" fill="#6528F7"/>
<path d="M24.4279 25.2473V25.543C23.0368 26.6797 21.2954 27.3007 19.4987 27.3007C17.7021 27.3007 15.9607 26.6797 14.5696 25.543V25.2473C14.5696 23.9403 15.0889 22.6869 16.0133 21.7627C16.9377 20.8386 18.1914 20.3194 19.4987 20.3194C20.806 20.3194 22.0598 20.8386 22.9842 21.7627C23.9086 22.6869 24.4279 23.9403 24.4279 25.2473Z" fill="#6528F7"/>
<path d="M19.4986 19.498C20.1521 19.4974 20.7786 19.2376 21.2406 18.7756C21.7027 18.3137 21.9626 17.6874 21.9632 17.0341V16.2128C21.9632 15.5593 21.7036 14.9326 21.2414 14.4705C20.7792 14.0084 20.1523 13.7488 19.4986 13.7488C18.845 13.7488 18.2181 14.0084 17.7559 14.4705C17.2937 14.9326 17.0341 15.5593 17.0341 16.2128V17.0341C17.0347 17.6874 17.2946 18.3137 17.7566 18.7756C18.2187 19.2376 18.8452 19.4974 19.4986 19.498Z" fill="#6528F7"/>
</svg>
