<?xml version="1.0" encoding="utf-8"?>
<svg width="24" height="24" viewBox="0 0 24 24" fill="none" xmlns="http://www.w3.org/2000/svg">
<g id="vuesax/linear/document-code">
<g id="vuesax/linear/document-code_2">
<g id="document-code">
<path id="Vector" d="M21 7V17C21 20 19.5 22 16 22H8C4.5 22 3 20 3 17V7C3 4 4.5 2 8 2H16C19.5 2 21 4 21 7Z" stroke="white" stroke-width="1.5" stroke-miterlimit="10" stroke-linecap="round" stroke-linejoin="round"/>
<path id="Vector_2" d="M15 5V6.5C15 7.325 15.675 8 16.5 8H18" stroke="white" stroke-width="1.5" stroke-miterlimit="10" stroke-linecap="round" stroke-linejoin="round"/>
<path id="Line 129 (Stroke)" fill-rule="evenodd" clip-rule="evenodd" d="M6.25 11.75C6.25 11.3358 6.58579 11 7 11L17 11C17.4142 11 17.75 11.3358 17.75 11.75C17.75 12.1642 17.4142 12.5 17 12.5L7 12.5C6.58579 12.5 6.25 12.1642 6.25 11.75Z" fill="white"/>
<path id="Line 130 (Stroke)" fill-rule="evenodd" clip-rule="evenodd" d="M6.25 14.75C6.25 14.3358 6.58579 14 7 14L15 14C15.4142 14 15.75 14.3358 15.75 14.75C15.75 15.1642 15.4142 15.5 15 15.5L7 15.5C6.58579 15.5 6.25 15.1642 6.25 14.75Z" fill="white"/>
<path id="Line 131 (Stroke)" fill-rule="evenodd" clip-rule="evenodd" d="M6.25 17.75C6.25 17.3358 6.58579 17 7 17L17 17C17.4142 17 17.75 17.3358 17.75 17.75C17.75 18.1642 17.4142 18.5 17 18.5L7 18.5C6.58579 18.5 6.25 18.1642 6.25 17.75Z" fill="white"/>
</g>
</g>
</g>
</svg>
