<?xml version="1.0" encoding="utf-8"?>
<svg width="20" height="20" viewBox="0 0 20 20" fill="none" xmlns="http://www.w3.org/2000/svg">
<path d="M7.08341 15.8333H6.66675C3.33341 15.8333 1.66675 15 1.66675 10.8333V6.66666C1.66675 3.33332 3.33341 1.66666 6.66675 1.66666H13.3334C16.6667 1.66666 18.3334 3.33332 18.3334 6.66666V10.8333C18.3334 14.1667 16.6667 15.8333 13.3334 15.8333H12.9167C12.6584 15.8333 12.4084 15.9583 12.2501 16.1667L11.0001 17.8333C10.4501 18.5667 9.55008 18.5667 9.00008 17.8333L7.75008 16.1667C7.61675 15.9833 7.30841 15.8333 7.08341 15.8333Z" stroke="white" stroke-width="1.5" stroke-miterlimit="10" stroke-linecap="round" stroke-linejoin="round"/>
<path d="M5.83325 6.66666H14.1666" stroke="white" stroke-width="1.5" stroke-linecap="round" stroke-linejoin="round"/>
<path d="M5.83325 10.8333H10.8333" stroke="white" stroke-width="1.5" stroke-linecap="round" stroke-linejoin="round"/>
</svg>
