<svg width="39" height="39" viewBox="0 0 39 39" fill="none" xmlns="http://www.w3.org/2000/svg">
<circle cx="19.5" cy="19.5" r="19.5" fill="white"/>
<path d="M25.4445 13.6111H19.889C17.1112 13.6111 15.7223 15 15.7223 17.7778V26.8056C15.7223 27.1875 16.0348 27.5 16.4167 27.5H25.4445C28.2223 27.5 29.6112 26.1111 29.6112 23.3334V17.7778C29.6112 15 28.2223 13.6111 25.4445 13.6111Z" stroke="#6528F7" stroke-width="1.5" stroke-linecap="round" stroke-linejoin="round"/>
<path d="M19.3334 20.5555H25.1667" stroke="#6528F7" stroke-width="1.5" stroke-miterlimit="10" stroke-linecap="round" stroke-linejoin="round"/>
<path d="M19.3334 17.7778H26.2778" stroke="#6528F7" stroke-width="1.5" stroke-miterlimit="10" stroke-linecap="round" stroke-linejoin="round"/>
<path d="M19.8889 23.3333H23.2222" stroke="#6528F7" stroke-width="1.5" stroke-miterlimit="10" stroke-linecap="round" stroke-linejoin="round"/>
<path d="M23.2222 11.5476C22.713 11.0317 22.2037 10 20.419 10H15.0367C12.3456 10 11 11.4444 11 14.3333V23.7222C11 24.1194 11.3028 24.4444 11.6728 24.4444H13.1825" stroke="#6528F7" stroke-width="1.5" stroke-linecap="round" stroke-linejoin="round"/>
</svg>
