<svg width="39" height="39" viewBox="0 0 39 39" fill="none" xmlns="http://www.w3.org/2000/svg">
<circle cx="19.5" cy="19.5" r="19.5" fill="white"/>
<path d="M17 27.3334H15.3333C12 27.3334 11.1666 26.5 11.1666 23.1667V14.8334C11.1666 11.5 12 10.6667 15.3333 10.6667H16.5833C17.8333 10.6667 18.1083 11.0334 18.5833 11.6667L19.8333 13.3334C20.15 13.75 20.3333 14 21.1666 14H23.6666C27 14 27.8333 14.8334 27.8333 18.1667V19.8334" stroke="#6528F7" stroke-width="1.8" stroke-miterlimit="10" stroke-linecap="round" stroke-linejoin="round"/>
<path d="M26.7776 23.6389V25.8056C26.7776 27.25 26.4165 27.6111 24.9721 27.6111H21.361C19.9165 27.6111 19.5554 27.25 19.5554 25.8056V22.1945C19.5554 20.75 19.9165 20.3889 21.361 20.3889H21.9026C22.4443 20.3889 22.5635 20.5478 22.7693 20.8222L23.311 21.5445C23.4482 21.725 23.5276 21.8334 23.8888 21.8334H24.9721C26.4165 21.8334 26.7776 22.1945 26.7776 23.6389Z" stroke="#6528F7" stroke-width="1.5" stroke-miterlimit="10"/>
</svg>
