<svg width="28" height="28" viewBox="0 0 28 28" fill="none" xmlns="http://www.w3.org/2000/svg">
<path d="M10.5 25.6666H8.16671C3.50004 25.6666 2.33337 24.5 2.33337 19.8333V8.16665C2.33337 3.49998 3.50004 2.33331 8.16671 2.33331H9.91671C11.6667 2.33331 12.0517 2.84666 12.7167 3.73333L14.4667 6.06666C14.9101 6.64999 15.1667 6.99998 16.3334 6.99998H19.8334C24.5 6.99998 25.6667 8.16665 25.6667 12.8333V15.1666" stroke="white" stroke-width="2" stroke-miterlimit="10" stroke-linecap="round" stroke-linejoin="round"/>
<path d="M24.1889 20.4945V23.5278C24.1889 25.55 23.6833 26.0556 21.6611 26.0556H16.6055C14.5833 26.0556 14.0778 25.55 14.0778 23.5278V18.4722C14.0778 16.45 14.5833 15.9445 16.6055 15.9445H17.3639C18.1222 15.9445 18.289 16.1669 18.5772 16.5511L19.3355 17.5622C19.5276 17.815 19.6389 17.9667 20.1444 17.9667H21.6611C23.6833 17.9667 24.1889 18.4722 24.1889 20.4945Z" stroke="white" stroke-width="1.8" stroke-miterlimit="10"/>
</svg>
