<?xml version="1.0" encoding="utf-8"?>
<svg width="22" height="27" viewBox="0 0 22 27" fill="none" xmlns="http://www.w3.org/2000/svg">
<path d="M2.66667 23.9999V13.3333H0V23.9999C0 25.4666 1.2 26.6666 2.66667 26.6666H10.6667V23.9999H2.66667Z" fill="#FBBC04"/>
<path d="M18.6665 23.9999H10.6665V26.6666H18.6665C19.3737 26.6666 20.052 26.3856 20.5521 25.8855C21.0522 25.3854 21.3332 24.7072 21.3332 23.9999V13.3333H18.6665V23.9999Z" fill="#34A853"/>
<path d="M18.6667 0H12V2.66667H18.6667V13.3333H21.3333V2.66667C21.3333 1.95942 21.0524 1.28115 20.5523 0.781048C20.0522 0.280951 19.3739 0 18.6667 0Z" fill="#EA4335"/>
<path d="M2.66667 0C1.95942 0 1.28115 0.280951 0.781048 0.781048C0.280951 1.28115 0 1.95942 0 2.66667V13.3333H2.66667V2.66667H5.33333V13.3333L8.66667 11.3333L12 13.3333V0H2.66667Z" fill="#4285F4"/>
</svg>
