<?xml version="1.0" encoding="utf-8"?>
<svg width="73" height="10" viewBox="0 0 73 10" fill="none" xmlns="http://www.w3.org/2000/svg">
<path d="M2.18266 9.50881C1.4979 9.50881 0.641958 9.37675 0 9.02457L0.171189 7.87999C0.727553 8.23217 1.4551 8.4963 2.18266 8.4963C3.33818 8.4963 3.85175 7.79194 3.85175 7.17563C3.85175 5.50278 0.0855944 5.28267 0.0855944 2.81743C0.0855944 1.49676 0.941539 0.440223 2.91021 0.440223C3.68056 0.440223 4.36532 0.57229 4.96448 0.880446L4.92168 2.02502C4.23692 1.5848 3.50937 1.40871 2.91021 1.40871C1.71189 1.40871 1.32671 2.11307 1.32671 2.72938C1.32671 4.44625 5.09287 4.75441 5.09287 7.08759C5.05007 8.40825 4.02294 9.50881 2.18266 9.50881ZM11.1273 8.8925C10.4853 9.33272 9.71497 9.50881 8.98741 9.50881C7.31832 9.50881 6.1628 8.27619 6.1628 5.98703C6.1628 3.60983 7.74629 2.55329 9.03021 2.55329C10.1857 2.55329 11.0417 2.86145 11.1273 3.74189V4.22614H10.1001C10.1001 3.65385 9.80056 3.52178 9.07301 3.52178C8.64504 3.52178 8.43105 3.5658 8.34546 3.65385C8.21706 3.74189 7.36112 4.18212 7.36112 5.94301C7.36112 7.79194 8.38825 8.54032 9.32979 8.54032C9.84336 8.54032 10.6565 8.23217 11.0845 7.87999L11.1273 8.8925ZM12.7964 1.62882C12.4112 1.62882 12.0688 1.23262 12.0688 0.836423C12.1116 0.3962 12.4112 0 12.7964 0C13.1815 0 13.5239 0.3962 13.5239 0.792401C13.5239 1.1886 13.1815 1.62882 12.7964 1.62882ZM12.2828 2.7734H13.3527V9.37674H12.2828V2.7734ZM15.9634 5.89898V6.1191C15.9634 7.7039 16.6909 8.54032 18.0604 8.54032C18.788 8.54032 19.6867 8.18814 20.0719 7.83597L20.1575 8.84848C19.6011 9.20066 18.9164 9.46479 17.718 9.46479C16.0918 9.46479 14.8506 8.18814 14.8506 6.03105C14.8506 3.78592 16.049 2.55329 17.718 2.55329C19.6867 2.55329 20.2859 3.60983 20.2859 5.89898H15.9634ZM19.2587 5.06256C19.2159 3.74189 18.6596 3.52178 17.6325 3.52178C17.3329 3.52178 16.8621 3.65385 16.7765 3.74189C16.6909 3.82994 16.1773 4.22614 16.0917 5.06256H19.2587ZM26.9194 9.33272H25.8495C25.8495 9.33272 25.8923 7.79194 25.8923 6.47127V5.06256C25.8495 4.05005 25.7639 3.5658 24.8224 3.5658C24.48 3.5658 24.052 3.69787 23.9236 3.74189C23.7952 3.82994 23.1533 4.49027 22.8537 4.88647V9.2887H21.7838V4.57832C21.7838 4.05005 21.7838 3.60983 21.741 3.25765L21.6982 2.72938H22.6825L22.8537 3.69787C23.3673 3.03754 23.9664 2.55329 24.9508 2.55329C26.1063 2.55329 26.8766 2.94949 27.005 4.27016C27.0478 4.93049 27.0478 5.59083 27.0478 6.25116C26.9194 7.35172 26.9194 9.33272 26.9194 9.33272ZM33.2962 8.8925C32.6543 9.33272 31.8839 9.50881 31.1564 9.50881C29.4873 9.50881 28.3318 8.27619 28.3318 5.98703C28.3318 3.60983 29.9152 2.55329 31.1992 2.55329C32.3547 2.55329 33.2106 2.86145 33.2962 3.74189V4.22614H32.2691C32.2691 3.65385 31.9695 3.52178 31.242 3.52178C30.814 3.52178 30.6 3.5658 30.5144 3.65385C30.4288 3.74189 29.5301 4.18212 29.5301 5.94301C29.5301 7.79194 30.5572 8.54032 31.4987 8.54032C32.0123 8.54032 32.8255 8.23217 33.2534 7.87999L33.2962 8.8925ZM35.0937 5.89898V6.1191C35.0937 7.7039 35.8213 8.54032 37.1908 8.54032C37.9183 8.54032 38.8171 8.18814 39.2022 7.83597L39.2878 8.84848C38.7315 9.20066 38.0467 9.46479 36.8484 9.46479C35.2221 9.46479 33.981 8.18814 33.981 6.03105C33.981 3.78592 35.1793 2.55329 36.8484 2.55329C38.8171 2.55329 39.4162 3.60983 39.4162 5.89898H35.0937ZM38.3891 5.06256C38.3463 3.74189 37.7899 3.52178 36.72 3.52178C36.4204 3.52178 35.9497 3.65385 35.8641 3.74189C35.7785 3.82994 35.2649 4.22614 35.1793 5.06256H38.3891ZM44.0383 9.33272H41.0853V0.57229H44.1239C47.1197 0.57229 48.1897 2.90547 48.1897 4.93049C48.1897 6.82345 47.1197 9.33272 44.0383 9.33272ZM43.9527 1.49676H42.198V8.40825H43.8243C45.9642 8.40825 46.9485 7.13161 46.9485 4.93049C46.9485 3.43374 46.2638 1.49676 43.9527 1.49676ZM50.3295 1.62882C49.9443 1.62882 49.602 1.23262 49.602 0.836423C49.602 0.440223 49.9015 0.0440223 50.3295 0.0440223C50.7147 0.0440223 51.0571 0.440223 51.0571 0.836423C51.0571 1.1886 50.7147 1.62882 50.3295 1.62882ZM49.816 2.7734H50.8859V9.37674H49.816V2.7734ZM56.6635 3.78592L55.7648 4.05005C55.7648 3.962 55.722 3.52178 55.294 3.52178C54.652 3.52178 54.1813 4.57832 53.9245 5.15061V9.33272H52.8546V4.57832C52.8546 4.05005 52.8546 3.65385 52.8118 3.30167L52.769 2.7734H53.7533L53.9245 3.82994C54.1385 3.25765 54.6948 2.64134 55.3796 2.64134C56.1071 2.64134 56.4923 2.99351 56.6207 3.60983C56.6207 3.69787 56.6635 3.78592 56.6635 3.78592ZM58.2898 5.89898V6.1191C58.2898 7.7039 59.0174 8.54032 60.3869 8.54032C61.1144 8.54032 62.0132 8.18814 62.3983 7.83597L62.4839 8.84848C61.9276 9.20066 61.2428 9.46479 60.0445 9.46479C58.4182 9.46479 57.1771 8.18814 57.1771 6.03105C57.1771 3.78592 58.3754 2.55329 60.0445 2.55329C62.0132 2.55329 62.6123 3.60983 62.6123 5.89898H58.2898ZM61.5852 5.06256C61.5424 3.74189 60.986 3.52178 59.9161 3.52178C59.6165 3.52178 59.1457 3.65385 59.0601 3.74189C58.9746 3.82994 58.461 4.22614 58.3754 5.06256H61.5852ZM68.4755 8.8925C67.8336 9.33272 67.0632 9.50881 66.3357 9.50881C64.6666 9.50881 63.5111 8.27619 63.5111 5.98703C63.5111 3.60983 65.0946 2.55329 66.3785 2.55329C67.534 2.55329 68.3899 2.86145 68.4755 3.74189V4.22614H67.4484C67.4484 3.65385 67.1488 3.52178 66.4213 3.52178C65.9933 3.52178 65.7793 3.5658 65.6937 3.65385C65.5653 3.74189 64.7094 4.18212 64.7094 5.94301C64.7094 7.79194 65.7365 8.54032 66.6781 8.54032C67.1916 8.54032 68.0048 8.23217 68.4327 7.87999L68.4755 8.8925ZM72.9692 9.20066C72.5841 9.37675 71.9849 9.55283 71.5141 9.55283C70.701 9.55283 70.1018 9.06859 70.1018 7.92401V3.65385H68.9035V2.7734H70.059V1.01251H71.129V2.7734H72.798V3.65385H71.129V7.52781C71.129 8.27619 71.3001 8.54032 71.8137 8.54032C72.1561 8.54032 72.4985 8.40826 72.8836 8.23217L72.9692 9.20066Z" fill="#FF8200"/>
</svg>
