<svg width="52" height="52" viewBox="0 0 52 52" fill="none" xmlns="http://www.w3.org/2000/svg">
<circle cx="26" cy="26" r="25.25" stroke="#8953F9" stroke-width="1.5"/>
<circle cx="26.0001" cy="26.0001" r="22.8485" fill="#8953F9"/>
<path d="M31.2321 19.2207H24.6923C21.4223 19.2207 19.7874 20.8557 19.7874 24.1256V34.7529C19.7874 35.2025 20.1552 35.5704 20.6048 35.5704H31.2321C34.5021 35.5704 36.1371 33.9354 36.1371 30.6655V24.1256C36.1371 20.8557 34.5021 19.2207 31.2321 19.2207Z" stroke="white" stroke-width="1.8" stroke-linecap="round" stroke-linejoin="round"/>
<path d="M24.0383 27.3955H30.9052" stroke="white" stroke-width="1.8" stroke-miterlimit="10" stroke-linecap="round" stroke-linejoin="round"/>
<path d="M24.0383 24.1255H32.2132" stroke="white" stroke-width="1.8" stroke-miterlimit="10" stroke-linecap="round" stroke-linejoin="round"/>
<path d="M24.6924 30.6653H28.6163" stroke="white" stroke-width="1.8" stroke-miterlimit="10" stroke-linecap="round" stroke-linejoin="round"/>
<path d="M28.616 16.7916C28.0165 16.1843 27.417 14.9697 25.3161 14.9697H18.9802C15.8123 14.9697 14.2283 16.6701 14.2283 20.0708V31.1232C14.2283 31.5908 14.5847 31.9734 15.0203 31.9734H16.7975" stroke="white" stroke-width="2" stroke-linecap="round" stroke-linejoin="round"/>
</svg>
