<svg width="52" height="52" viewBox="0 0 52 52" fill="none" xmlns="http://www.w3.org/2000/svg">
<circle cx="26" cy="26" r="25.25" stroke="#1DB8BA" stroke-width="1.5"/>
<circle cx="26.0001" cy="26.0001" r="22.8485" fill="#1DB8BA"/>
<path d="M34.3713 25.3107V21.1153C34.3713 17.1463 33.4456 16.1516 29.7228 16.1516H22.2774C18.5547 16.1516 17.6289 17.1463 17.6289 21.1153V32.2046C17.6289 34.8243 19.0668 35.4448 20.81 33.5736L20.8198 33.5637C21.6274 32.7069 22.8584 32.7758 23.5577 33.7114L24.5524 35.041" stroke="white" stroke-width="2" stroke-linecap="round" stroke-linejoin="round"/>
<path d="M22.0608 21.0759H29.9396" stroke="white" stroke-width="2" stroke-linecap="round" stroke-linejoin="round"/>
<path d="M23.0454 25.0151H28.9545" stroke="white" stroke-width="2" stroke-linecap="round" stroke-linejoin="round"/>
<path d="M32.1168 28.7284L28.6305 32.2148C28.4926 32.3526 28.3646 32.6087 28.335 32.7958L28.1479 34.1254C28.079 34.6079 28.4138 34.9428 28.8964 34.8739L30.226 34.6867C30.4131 34.6572 30.679 34.5291 30.807 34.3913L34.2934 30.9049C34.8941 30.3042 35.1797 29.6049 34.2934 28.7186C33.4169 27.842 32.7176 28.1276 32.1168 28.7284Z" stroke="white" stroke-width="2" stroke-miterlimit="10" stroke-linecap="round" stroke-linejoin="round"/>
<path d="M31.6128 29.2307C31.9082 30.2943 32.7355 31.1216 33.7992 31.4171" stroke="white" stroke-width="2" stroke-miterlimit="10" stroke-linecap="round" stroke-linejoin="round"/>
</svg>
