<svg width="30" height="30" viewBox="0 0 30 30" fill="none" xmlns="http://www.w3.org/2000/svg">
<path d="M16.0716 1.07143H27.8574C28.4824 1.07143 28.6495 1.30286 28.7866 1.57643C28.9238 1.85 28.9288 2.14286 28.9288 2.14286V9.64572C28.9288 9.64572 28.9231 9.93286 28.7866 10.2064C28.6502 10.48 28.4824 10.7171 27.8574 10.7171H21.9645C21.8109 10.7171 21.6659 10.7814 21.5652 10.8929C20.4488 12.1486 19.0316 13.7386 18.2145 14.6593V11.25C18.2145 10.9543 17.9745 10.7143 17.6788 10.7171H16.0716C15.4438 10.7171 15.2795 10.48 15.1424 10.2064C15.0059 9.93286 15.0002 9.64572 15.0002 9.64572V2.14286C15.0002 2.14286 15.0059 1.85 15.1424 1.57643C15.2795 1.30286 15.4466 1.07143 16.0716 1.07143ZM16.0716 0C15.0895 0 14.4502 0.569286 14.1852 1.09929C13.9202 1.62929 13.9288 2.14286 13.9288 2.14286V9.64572C13.9288 9.64857 13.9174 10.1564 14.1824 10.6836C14.4452 11.2136 15.0866 11.7829 16.0716 11.7829H17.1431V16.0714C17.1431 16.565 17.7538 16.7971 18.0809 16.4257C18.0809 16.4257 20.7338 13.44 22.2038 11.7829H27.8574C28.8395 11.7829 29.4788 11.2136 29.7438 10.6836C30.0088 10.1564 30.0002 9.64572 30.0002 9.64572V2.14286C30.0002 2.14286 30.0088 1.62929 29.7438 1.09929C29.4788 0.569286 28.8395 0 27.8574 0H16.0716Z" fill="#111541"/>
<path d="M7.49721 10.1785C9.28007 10.1785 10.7144 11.6128 10.7144 13.3928C10.7144 15.1757 9.28007 16.6071 7.49721 16.6071C5.71721 16.6071 4.28864 15.1757 4.28864 13.3928C4.28864 11.6128 5.71721 10.1785 7.49721 10.1785ZM7.49721 9.10712C5.1365 9.10712 3.21436 11.0321 3.21436 13.3928C3.21436 15.7535 5.1365 17.6814 7.49721 17.6814C9.85793 17.6814 11.7858 15.7535 11.7858 13.3928C11.7858 11.0321 9.85793 9.10712 7.49721 9.10712Z" fill="#111541"/>
<path d="M4.28858 19.8186H10.7143C12.4779 19.8522 13.1779 20.6279 13.5657 21.42C13.9507 22.215 13.9286 23.0157 13.9286 23.0157C13.9286 23.0214 13.9286 23.0272 13.9286 23.035V28.925H1.07143V23.0357C1.07143 23.0357 1.07715 22.21 1.48429 21.4007C1.88929 20.5914 2.59215 19.8186 4.28858 19.8186ZM4.28858 18.7529C2.235 18.7529 1.06 19.8579 0.527146 20.9236C-0.00571179 21.9893 2.51939e-06 23.0357 2.51939e-06 23.0357V29.4643C0.00285966 29.76 0.240003 29.9972 0.535717 30H14.4614C14.7571 30 15 29.76 15 29.4643V23.055C15 23.055 15.0421 22.0143 14.5257 20.9514C14.0093 19.8857 12.8379 18.7893 10.7257 18.7529C10.7229 18.7529 10.7171 18.7529 10.7143 18.7529H4.28858Z" fill="#111541"/>
<path d="M21.9641 5.35713C22.2656 5.35713 22.497 5.58856 22.497 5.89285C22.497 6.19428 22.2656 6.42856 21.9641 6.42856C21.6627 6.42856 21.4313 6.19428 21.4313 5.89285C21.4313 5.58856 21.6627 5.35713 21.9641 5.35713ZM21.9641 4.28571C21.0827 4.28571 20.3599 5.01142 20.3599 5.89285C20.3599 6.77142 21.0827 7.49999 21.9641 7.49999C22.8456 7.49999 23.5684 6.77142 23.5684 5.89285C23.5684 5.01142 22.8456 4.28571 21.9641 4.28571Z" fill="#111541"/>
<path d="M18.2143 5.35713C18.5186 5.35713 18.75 5.58856 18.75 5.89285C18.75 6.19428 18.5186 6.42856 18.2143 6.42856C17.9129 6.42856 17.6786 6.19428 17.6786 5.89285C17.6786 5.58856 17.9129 5.35713 18.2143 5.35713ZM18.2143 4.28571C17.3357 4.28571 16.6072 5.01142 16.6072 5.89285C16.6072 6.77142 17.3357 7.49999 18.2143 7.49999C19.0957 7.49999 19.8215 6.77142 19.8215 5.89285C19.8215 5.01142 19.0957 4.28571 18.2143 4.28571Z" fill="#111541"/>
<path d="M25.7143 5.35713C26.0157 5.35713 26.25 5.58856 26.25 5.89285C26.25 6.19428 26.0157 6.42856 25.7143 6.42856C25.41 6.42856 25.1786 6.19428 25.1786 5.89285C25.1786 5.58856 25.41 5.35713 25.7143 5.35713ZM25.7143 4.28571C24.8329 4.28571 24.1072 5.01142 24.1072 5.89285C24.1072 6.77142 24.8329 7.49999 25.7143 7.49999C26.5929 7.49999 27.3215 6.77142 27.3215 5.89285C27.3215 5.01142 26.5929 4.28571 25.7143 4.28571Z" fill="#111541"/>
</svg>
